<svg xmlns="http://www.w3.org/2000/svg" xmlns:xlink="http://www.w3.org/1999/xlink" width="500" zoomAndPan="magnify" viewBox="0 0 375 374.999991" height="500" preserveAspectRatio="xMidYMid meet" version="1.0"><defs><filter x="0%" y="0%" width="100%" height="100%" id="8c9cb60e1f"><feColorMatrix values="0 0 0 0 1 0 0 0 0 1 0 0 0 0 1 0 0 0 1 0" color-interpolation-filters="sRGB"/></filter><mask id="370b93def1"><g filter="url(#8c9cb60e1f)"><rect x="-37.5" width="450" fill="#000000" y="-37.499999" height="449.999989" fill-opacity="0.5"/></g></mask><clipPath id="ed7106d2ec"><path d="M 0.601562 0.839844 L 271.800781 0.839844 L 271.800781 272.28125 L 0.601562 272.28125 Z M 0.601562 0.839844 " clip-rule="nonzero"/></clipPath><clipPath id="04d4b788d0"><rect x="0" width="272" y="0" height="273"/></clipPath><clipPath id="a801a6ccd0"><path d="M 31.375 6.242188 L 268 6.242188 L 268 254 L 31.375 254 Z M 31.375 6.242188 " clip-rule="nonzero"/></clipPath><mask id="920b27e730"><g filter="url(#8c9cb60e1f)"><rect x="-37.5" width="450" fill="#000000" y="-37.499999" height="449.999989" fill-opacity="0.5"/></g></mask><clipPath id="90b8c0925b"><path d="M 1 0.398438 L 51 0.398438 L 51 24.398438 L 1 24.398438 Z M 1 0.398438 " clip-rule="nonzero"/></clipPath><clipPath id="a054d8b9a6"><rect x="0" width="52" y="0" height="25"/></clipPath><clipPath id="7197e1e934"><path d="M 61 158 L 343.375 158 L 343.375 368.492188 L 61 368.492188 Z M 61 158 " clip-rule="nonzero"/></clipPath><mask id="5d10cf9b1c"><g filter="url(#8c9cb60e1f)"><rect x="-37.5" width="450" fill="#000000" y="-37.499999" height="449.999989" fill-opacity="0.5"/></g></mask><clipPath id="da4882c58a"><path d="M 0.199219 1 L 165.800781 1 L 165.800781 170.320312 L 0.199219 170.320312 Z M 0.199219 1 " clip-rule="nonzero"/></clipPath><clipPath id="7a4df97bb8"><rect x="0" width="166" y="0" height="171"/></clipPath><clipPath id="a2b063aa60"><path d="M 92 160 L 343.375 160 L 343.375 338 L 92 338 Z M 92 160 " clip-rule="nonzero"/></clipPath><mask id="3a4f27022f"><g filter="url(#8c9cb60e1f)"><rect x="-37.5" width="450" fill="#000000" y="-37.499999" height="449.999989" fill-opacity="0.5"/></g></mask><clipPath id="848e78d19c"><path d="M 0.640625 0.558594 L 70.71875 0.558594 L 70.71875 55 L 0.640625 55 Z M 0.640625 0.558594 " clip-rule="nonzero"/></clipPath><clipPath id="f012224c92"><rect x="0" width="71" y="0" height="56"/></clipPath><clipPath id="15cdc19a68"><path d="M 31.375 101 L 87 101 L 87 188 L 31.375 188 Z M 31.375 101 " clip-rule="nonzero"/></clipPath><clipPath id="bdc06d46b5"><path d="M 80 184 L 265 184 L 265 368.492188 L 80 368.492188 Z M 80 184 " clip-rule="nonzero"/></clipPath><clipPath id="8911ba3764"><path d="M 114 6.242188 L 268 6.242188 L 268 141 L 114 141 Z M 114 6.242188 " clip-rule="nonzero"/></clipPath><mask id="124dfef1ef"><g filter="url(#8c9cb60e1f)"><rect x="-37.5" width="450" fill="#000000" y="-37.499999" height="449.999989" fill-opacity="0.2"/></g></mask><clipPath id="e290c6152a"><path d="M 0.238281 0.519531 L 205.679688 0.519531 L 205.679688 156.761719 L 0.238281 156.761719 Z M 0.238281 0.519531 " clip-rule="nonzero"/></clipPath><clipPath id="bb3fcbef83"><rect x="0" width="206" y="0" height="157"/></clipPath><mask id="5d02c859d9"><g filter="url(#8c9cb60e1f)"><rect x="-37.5" width="450" fill="#000000" y="-37.499999" height="449.999989" fill-opacity="0.2"/></g></mask><clipPath id="368bc25d8c"><path d="M 0.640625 0.359375 L 212.320312 0.359375 L 212.320312 159.960938 L 0.640625 159.960938 Z M 0.640625 0.359375 " clip-rule="nonzero"/></clipPath><clipPath id="abff8d9a8d"><rect x="0" width="213" y="0" height="160"/></clipPath><mask id="d1aa3f9cd6"><g filter="url(#8c9cb60e1f)"><rect x="-37.5" width="450" fill="#000000" y="-37.499999" height="449.999989" fill-opacity="0.2"/></g></mask><clipPath id="29956e0c98"><path d="M 0.679688 1 L 56 1 L 56 135.28125 L 0.679688 135.28125 Z M 0.679688 1 " clip-rule="nonzero"/></clipPath><clipPath id="f88e9a26b8"><rect x="0" width="57" y="0" height="136"/></clipPath><mask id="c8776e7da0"><g filter="url(#8c9cb60e1f)"><rect x="-37.5" width="450" fill="#000000" y="-37.499999" height="449.999989" fill-opacity="0.2"/></g></mask><clipPath id="e7ff669171"><path d="M 0.558594 0.359375 L 127.519531 0.359375 L 127.519531 51.71875 L 0.558594 51.71875 Z M 0.558594 0.359375 " clip-rule="nonzero"/></clipPath><clipPath id="ff998c5282"><rect x="0" width="128" y="0" height="52"/></clipPath></defs><path fill="#ff1f70" d="M 323.054688 187.496094 C 323.054688 261.835938 263.214844 322.199219 189.078125 323.042969 C 188.554688 323.050781 188.023438 323.050781 187.5 323.050781 C 170.78125 323.050781 154.769531 320.027344 139.984375 314.492188 C 133.742188 312.15625 127.722656 309.375 121.957031 306.183594 C 113.570312 301.542969 105.730469 296.035156 98.550781 289.785156 C 72.597656 267.203125 55.320312 234.902344 52.390625 198.550781 C 52.09375 194.90625 51.945312 191.21875 51.945312 187.496094 C 51.945312 112.632812 112.632812 51.941406 187.5 51.941406 C 191.078125 51.941406 194.625 52.082031 198.136719 52.355469 C 210.25 53.292969 221.917969 55.824219 232.929688 59.742188 C 244.820312 63.972656 255.945312 69.8125 266.042969 77.003906 C 296.289062 98.542969 317.316406 132.195312 322.042969 170.878906 C 322.246094 172.515625 322.417969 174.164062 322.558594 175.820312 C 322.886719 179.667969 323.054688 183.5625 323.054688 187.496094 Z M 323.054688 187.496094 " fill-opacity="1" fill-rule="nonzero"/><g mask="url(#370b93def1)"><g transform="matrix(1, 0, 0, 1, 51, 51)"><g clip-path="url(#04d4b788d0)"><g clip-path="url(#ed7106d2ec)"><path fill="#340087" d="M 271.042969 119.878906 C 245.703125 119.191406 226.230469 123.324219 211.613281 127.773438 C 205.527344 110.558594 176.117188 97.09375 158.804688 101.875 C 172.996094 89.949219 191.863281 73.125 203.007812 55.441406 C 209.207031 44.554688 213.097656 34.757812 215.042969 26.003906 C 204.945312 18.8125 193.820312 12.972656 181.929688 8.742188 C 181.972656 24.808594 160.25 53.46875 150.171875 64.515625 C 130.339844 87.71875 103.132812 111.707031 83.285156 132.816406 C 95.03125 104.902344 108.710938 74.191406 121.507812 45.894531 C 123.003906 42.652344 123.425781 39.222656 122.976562 35.964844 C 122 28.40625 116.101562 21.875 108.453125 20.578125 C 119.5 12.476562 133.328125 5.78125 147.136719 1.355469 C 143.625 1.082031 140.078125 0.941406 136.5 0.941406 C 61.632812 0.941406 0.945312 61.632812 0.945312 136.496094 C 0.945312 140.21875 1.09375 143.90625 1.390625 147.550781 C 11.125 149.808594 23.296875 146.210938 35.824219 134.066406 C -11.242188 134.074219 44.945312 72.613281 58 58.855469 C 66.148438 50.046875 75.488281 41.777344 84.929688 34.613281 C 63.367188 84.382812 34.355469 135.503906 21.292969 188.050781 C 21.574219 191.117188 23.296875 193.808594 25.359375 196.027344 C 31.628906 206.847656 45.640625 216.707031 52.929688 205.648438 C 61.601562 193.480469 111.683594 138.039062 144.6875 128.136719 C 145.972656 127.75 147.300781 127.488281 148.644531 127.433594 C 160.148438 126.960938 162.585938 139.367188 162.101562 149.335938 C 108.726562 182.980469 71.703125 213.171875 47.550781 238.785156 C 54.730469 245.035156 62.570312 250.542969 70.957031 255.183594 C 93.539062 229.089844 124.175781 205.75 150.546875 187.300781 C 148.925781 191.066406 146.644531 195.253906 143.828125 199.738281 C 131.371094 218.785156 111.027344 242.753906 88.984375 263.492188 C 103.769531 269.027344 119.78125 272.050781 136.5 272.050781 C 137.023438 272.050781 137.554688 272.050781 138.078125 272.042969 C 165.5 242.652344 192.5 201.191406 213.507812 145.867188 C 227.417969 137.117188 249.257812 129.375 271.558594 124.820312 C 271.417969 123.164062 271.246094 121.515625 271.042969 119.878906 Z M 271.042969 119.878906 " fill-opacity="1" fill-rule="nonzero"/></g></g></g></g><g clip-path="url(#a801a6ccd0)"><path fill="#7c00ff" d="M 261.753906 164.5 C 255.109375 149.953125 227.917969 136.449219 210.839844 140.582031 C 210.679688 140.621094 210.515625 140.660156 210.355469 140.703125 C 210.320312 140.710938 210.285156 140.722656 210.25 140.730469 C 210.199219 140.746094 210.144531 140.757812 210.09375 140.777344 C 209.945312 140.816406 209.855469 140.84375 209.820312 140.851562 C 209.808594 140.855469 209.804688 140.855469 209.804688 140.855469 C 220.878906 131.507812 234.640625 119.464844 245.617188 105.976562 C 248.667969 102.230469 251.503906 98.367188 254.007812 94.421875 C 294.972656 25.664062 234.960938 -10.4375 164.75 13.789062 C 149.851562 18.929688 134.492188 26.785156 119.539062 37.628906 C 118.007812 38.6875 116.484375 39.757812 114.964844 40.847656 C 79.707031 66.109375 47.910156 99.328125 34 137.78125 C 23.148438 169.757812 47.070312 207.796875 85.496094 174.226562 C 85.765625 173.992188 86.03125 173.757812 86.300781 173.515625 C 86.476562 173.359375 86.648438 173.203125 86.824219 173.046875 C 86.738281 173.046875 86.652344 173.050781 86.570312 173.050781 C 86.332031 173.054688 86.097656 173.058594 85.867188 173.058594 C 85.257812 173.0625 84.671875 173.050781 84.097656 173.027344 C 66.378906 172.390625 65.488281 161.0625 72.53125 146.210938 C 83.277344 123.5625 112.476562 92.730469 128.570312 79.171875 C 129.402344 78.472656 130.195312 77.816406 130.953125 77.210938 C 132.226562 76.191406 133.394531 75.3125 134.425781 74.589844 C 134.953125 74.222656 135.445312 73.894531 135.902344 73.609375 C 135.90625 73.605469 135.914062 73.601562 135.917969 73.597656 C 135.921875 73.597656 135.925781 73.59375 135.929688 73.59375 C 135.90625 73.644531 135.882812 73.695312 135.859375 73.746094 C 114.289062 120.800781 88.851562 182.390625 72.792969 231.644531 C 71.894531 234.1875 71.566406 236.546875 71.804688 238.71875 C 72.007812 240.550781 72.609375 242.246094 73.613281 243.816406 C 73.613281 243.820312 73.617188 243.820312 73.617188 243.820312 C 74.28125 244.828125 75.035156 245.789062 75.867188 246.695312 C 82.984375 254.449219 95.632812 257.972656 102.917969 246.914062 C 110.839844 234.351562 165.570312 174.40625 194.804688 167.171875 C 200.050781 165.871094 204.476562 166.269531 207.660156 168.945312 C 211.089844 171.816406 213.082031 177.324219 213.125 186.179688 C 213.132812 186.871094 213.121094 187.582031 213.101562 188.316406 C 213.179688 188.308594 213.261719 188.304688 213.34375 188.296875 C 213.636719 188.277344 213.957031 188.234375 214.304688 188.175781 C 217.160156 187.691406 221.433594 186.054688 226.828125 183.613281 C 233.421875 180.628906 241.691406 176.4375 251.078125 171.683594 C 252.703125 170.859375 254.816406 171.136719 256.761719 170.90625 C 257.515625 170.816406 258.246094 170.652344 258.910156 170.316406 C 258.878906 170.179688 259.152344 169.890625 259.5625 169.527344 C 259.753906 169.363281 259.972656 169.179688 260.207031 168.992188 C 261.308594 168.097656 262.707031 167.054688 262.613281 166.753906 C 262.382812 166 262.097656 165.25 261.753906 164.5 Z M 201.171875 103.496094 C 201.171875 103.496094 201.15625 103.515625 201.148438 103.527344 C 197.742188 107.472656 194.203125 111.386719 190.585938 115.253906 C 188.757812 117.203125 186.914062 119.144531 185.058594 121.070312 C 183.820312 122.355469 182.574219 123.632812 181.328125 124.902344 C 180.082031 126.175781 178.832031 127.441406 177.582031 128.699219 C 173.824219 132.472656 170.054688 136.191406 166.335938 139.835938 C 154.5625 151.359375 143.261719 162.144531 134.285156 171.796875 C 146.03125 143.882812 159.710938 113.171875 172.507812 84.878906 C 177.066406 74.84375 171.667969 63.121094 161.414062 60.03125 C 161.027344 59.914062 160.628906 59.808594 160.230469 59.71875 C 159.972656 59.660156 159.714844 59.609375 159.453125 59.558594 C 159.550781 59.480469 159.648438 59.398438 159.75 59.320312 C 159.757812 59.3125 159.765625 59.308594 159.773438 59.296875 C 160.371094 58.816406 161.058594 58.300781 161.824219 57.761719 C 162.886719 57.011719 164.105469 56.210938 165.449219 55.375 C 165.804688 55.15625 166.167969 54.933594 166.546875 54.703125 C 170.585938 52.269531 175.625 49.589844 181.117188 47.050781 C 181.128906 47.042969 181.140625 47.039062 181.152344 47.03125 C 181.722656 46.769531 182.296875 46.503906 182.875 46.246094 C 188.375 43.769531 194.253906 41.464844 199.980469 39.695312 C 201.558594 39.210938 203.125 38.765625 204.667969 38.367188 C 204.734375 38.347656 204.804688 38.328125 204.875 38.3125 C 204.992188 38.28125 205.109375 38.253906 205.226562 38.226562 C 205.320312 38.199219 205.414062 38.175781 205.503906 38.15625 C 205.695312 38.105469 205.882812 38.058594 206.074219 38.015625 C 206.277344 37.964844 206.484375 37.917969 206.6875 37.871094 C 206.945312 37.808594 207.199219 37.753906 207.457031 37.695312 C 208.570312 37.445312 209.675781 37.226562 210.753906 37.039062 C 211.015625 36.996094 211.277344 36.949219 211.53125 36.910156 C 211.90625 36.851562 212.277344 36.792969 212.648438 36.742188 C 212.796875 36.722656 212.945312 36.699219 213.09375 36.683594 C 213.328125 36.648438 213.566406 36.621094 213.796875 36.59375 C 214.0625 36.5625 214.324219 36.53125 214.585938 36.503906 C 214.859375 36.476562 215.132812 36.449219 215.402344 36.429688 C 215.421875 36.429688 215.441406 36.425781 215.460938 36.425781 C 215.730469 36.402344 215.992188 36.378906 216.257812 36.363281 C 216.519531 36.347656 216.78125 36.332031 217.042969 36.324219 C 217.058594 36.320312 217.070312 36.320312 217.085938 36.320312 C 217.292969 36.308594 217.5 36.300781 217.707031 36.296875 C 217.777344 36.296875 217.851562 36.296875 217.921875 36.292969 C 218.171875 36.285156 218.417969 36.285156 218.660156 36.285156 C 223.40625 36.285156 227.328125 37.300781 229.851562 39.730469 C 229.921875 39.796875 229.992188 39.863281 230.058594 39.9375 C 230.125 40.007812 230.191406 40.074219 230.257812 40.148438 C 231.089844 41.058594 231.746094 42.148438 232.199219 43.429688 C 232.78125 45.070312 233.03125 47.03125 232.894531 49.347656 C 232.886719 49.503906 232.875 49.664062 232.863281 49.824219 C 232.832031 50.222656 232.792969 50.632812 232.734375 51.046875 C 232.71875 51.195312 232.699219 51.34375 232.675781 51.492188 C 232.652344 51.640625 232.628906 51.792969 232.605469 51.941406 C 232.59375 52.03125 232.578125 52.117188 232.5625 52.207031 C 232.542969 52.320312 232.523438 52.4375 232.5 52.554688 C 232.5 52.574219 232.496094 52.59375 232.492188 52.617188 C 232.464844 52.75 232.4375 52.886719 232.414062 53.023438 C 232.375 53.210938 232.335938 53.398438 232.296875 53.589844 C 232.261719 53.746094 232.226562 53.90625 232.191406 54.070312 C 232.15625 54.238281 232.113281 54.410156 232.070312 54.582031 C 232.03125 54.746094 231.992188 54.90625 231.949219 55.070312 C 231.9375 55.113281 231.929688 55.148438 231.921875 55.1875 C 231.917969 55.203125 231.914062 55.214844 231.910156 55.230469 C 231.902344 55.261719 231.890625 55.289062 231.886719 55.320312 C 231.859375 55.425781 231.828125 55.527344 231.800781 55.636719 C 231.785156 55.679688 231.769531 55.726562 231.75 55.773438 C 231.75 55.777344 231.75 55.777344 231.75 55.78125 C 229.882812 62 226.128906 69.136719 221.574219 76.292969 C 221.558594 76.320312 221.542969 76.34375 221.527344 76.371094 C 215.867188 85.492188 208.863281 94.578125 201.171875 103.496094 Z M 201.171875 103.496094 " fill-opacity="1" fill-rule="nonzero"/></g><path fill="#340087" d="M 213.101562 188.316406 C 213.121094 187.582031 213.132812 186.871094 213.125 186.179688 C 213.042969 169.085938 205.691406 164.472656 194.804688 167.171875 C 194.804688 167.171875 217.871094 155.597656 232.414062 179.132812 C 226.203125 181.949219 215.886719 188.167969 213.101562 188.316406 Z M 213.101562 188.316406 " fill-opacity="1" fill-rule="nonzero"/><path fill="#9f55ff" d="M 260.207031 168.992188 C 256.914062 169.582031 256.925781 169.363281 255.589844 169.800781 C 245.882812 138.425781 210.589844 140.78125 209.820312 140.851562 C 209.855469 140.84375 209.945312 140.816406 210.09375 140.777344 C 210.144531 140.757812 210.199219 140.746094 210.25 140.730469 C 210.285156 140.722656 210.320312 140.710938 210.355469 140.703125 C 210.515625 140.660156 210.679688 140.621094 210.839844 140.582031 C 228.796875 136.238281 257.9375 151.386719 262.613281 166.753906 C 262.707031 167.054688 261.308594 168.097656 260.207031 168.992188 Z M 260.207031 168.992188 " fill-opacity="1" fill-rule="nonzero"/><g mask="url(#920b27e730)"><g transform="matrix(1, 0, 0, 1, 212, 164)"><g clip-path="url(#a054d8b9a6)"><g clip-path="url(#90b8c0925b)"><path fill="#340087" d="M 48.207031 4.992188 C 47.972656 5.179688 47.753906 5.363281 47.5625 5.527344 C 46.628906 5.992188 45.695312 6.449219 44.761719 6.90625 C 26.664062 15.71875 9.140625 23.058594 2.304688 24.175781 C 1.957031 24.234375 1.636719 24.277344 1.34375 24.296875 C 1.261719 24.304688 1.179688 24.308594 1.101562 24.316406 C 1.121094 23.582031 1.132812 22.871094 1.125 22.179688 C 1.125 22.179688 33.214844 3.410156 49.753906 0.5 C 50.097656 1.25 50.382812 2 50.613281 2.753906 C 50.707031 3.054688 49.308594 4.097656 48.207031 4.992188 Z M 48.207031 4.992188 " fill-opacity="1" fill-rule="nonzero"/></g></g></g></g><g clip-path="url(#7197e1e934)"><path fill="#7c00ff" d="M 337.769531 159.867188 C 337.410156 159.832031 337.046875 159.796875 336.6875 159.761719 C 298.140625 156.195312 273.460938 163.140625 254.945312 169.15625 C 253.910156 169.492188 252.890625 169.828125 251.894531 170.15625 C 251.058594 170.355469 214.289062 187.574219 213.101562 188.316406 C 67.03125 280.144531 43.632812 346.160156 71.09375 364 C 73.730469 365.714844 76.835938 366.984375 80.351562 367.785156 C 115.085938 375.742188 190.984375 334.425781 243.878906 231.496094 C 251.144531 217.359375 257.976562 202.054688 264.207031 185.554688 C 264.222656 185.515625 264.238281 185.476562 264.25 185.441406 C 264.269531 185.394531 264.285156 185.347656 264.300781 185.308594 C 264.308594 185.285156 264.316406 185.265625 264.324219 185.246094 C 264.339844 185.207031 264.351562 185.171875 264.367188 185.140625 C 264.4375 184.960938 264.46875 184.871094 264.46875 184.871094 C 282.773438 173.347656 314.839844 163.554688 343.621094 160.503906 C 341.632812 160.265625 339.683594 160.050781 337.769531 159.867188 Z M 201.546875 226.28125 C 199.925781 230.046875 197.644531 234.234375 194.828125 238.71875 C 194.828125 238.71875 194.824219 238.726562 194.824219 238.726562 C 179.597656 262.96875 148.765625 295.894531 122.457031 317.921875 C 112.363281 326.371094 102.9375 333.21875 95.3125 337.355469 C 95.09375 337.472656 94.878906 337.589844 94.664062 337.703125 C 94.664062 298.199219 173.789062 230.742188 201.546875 226.28125 Z M 201.546875 226.28125 " fill-opacity="1" fill-rule="nonzero"/></g><g mask="url(#5d10cf9b1c)"><g transform="matrix(1, 0, 0, 1, 85, 188)"><g clip-path="url(#7a4df97bb8)"><g clip-path="url(#da4882c58a)"><path fill="#ebdcff" d="M 165.59375 1.273438 C 149.265625 51.503906 105.199219 109.003906 65.195312 143.296875 C 53.242188 153.378906 35.847656 166.59375 20.402344 169.640625 C 15.007812 170.707031 8.785156 170.25 4.863281 165.949219 C 2.074219 162.925781 0.929688 158.828125 0.480469 154.84375 C 0.777344 156.140625 1.125 157.414062 1.566406 158.65625 C 3.976562 165.46875 8.863281 168.929688 16.167969 168.121094 C 34.664062 165.882812 60.363281 142.125 73.730469 129.097656 C 92.480469 110.59375 109.546875 90.410156 125.15625 69.195312 C 140.691406 47.886719 154.976562 25.476562 165.59375 1.273438 Z M 165.59375 1.273438 " fill-opacity="1" fill-rule="nonzero"/></g></g></g></g><path fill="#ebdcff" d="M 92.316406 354.429688 C 102.390625 360.558594 120.410156 348.527344 128.730469 342.515625 C 146.667969 329.175781 162.460938 313.175781 177.429688 296.628906 C 198.992188 272.453125 218.691406 246.5 235.402344 218.722656 C 236.910156 216.167969 238.988281 212.605469 240.433594 210.003906 C 239.027344 212.671875 237.101562 216.234375 235.609375 218.84375 C 223.960938 239.273438 210.347656 258.542969 195.679688 276.90625 C 185.167969 289.988281 173.980469 302.605469 162.132812 314.488281 C 147.964844 328.488281 124.542969 350.34375 105.367188 355.4375 C 101.039062 356.582031 96.25 356.945312 92.320312 354.425781 Z M 92.316406 354.429688 " fill-opacity="1" fill-rule="nonzero"/><g clip-path="url(#a2b063aa60)"><path fill="#340087" d="M 336.253906 160.09375 C 335.882812 160.09375 335.511719 160.09375 335.144531 160.101562 C 335.09375 160.101562 335.039062 160.105469 334.988281 160.105469 C 334.734375 160.105469 334.484375 160.113281 334.230469 160.121094 C 334.058594 160.125 333.882812 160.128906 333.707031 160.136719 C 333.582031 160.140625 333.457031 160.144531 333.328125 160.148438 C 332.992188 160.160156 332.648438 160.175781 332.308594 160.195312 C 332.070312 160.203125 331.828125 160.21875 331.585938 160.230469 C 331.265625 160.25 330.941406 160.269531 330.613281 160.292969 C 330.464844 160.304688 330.316406 160.316406 330.167969 160.328125 C 329.933594 160.34375 329.699219 160.359375 329.460938 160.378906 C 329.304688 160.390625 329.148438 160.40625 328.988281 160.417969 C 328.5625 160.457031 328.132812 160.496094 327.699219 160.539062 C 327.394531 160.566406 327.085938 160.601562 326.777344 160.632812 C 326.488281 160.664062 326.203125 160.695312 325.910156 160.730469 C 325.660156 160.757812 325.410156 160.789062 325.160156 160.820312 C 325.078125 160.832031 324.996094 160.839844 324.910156 160.851562 C 324.234375 160.9375 323.546875 161.027344 322.855469 161.128906 C 322.804688 161.136719 322.75 161.144531 322.695312 161.152344 C 322.3125 161.207031 321.925781 161.265625 321.539062 161.328125 C 320.738281 161.449219 319.9375 161.582031 319.121094 161.722656 C 318.914062 161.761719 318.707031 161.796875 318.496094 161.835938 C 318.160156 161.894531 317.824219 161.957031 317.488281 162.019531 C 317.09375 162.089844 316.703125 162.167969 316.304688 162.246094 C 315.898438 162.324219 315.488281 162.40625 315.074219 162.492188 C 314.742188 162.558594 314.410156 162.628906 314.078125 162.699219 C 313.816406 162.753906 313.554688 162.808594 313.285156 162.867188 C 312.886719 162.953125 312.480469 163.042969 312.074219 163.136719 C 311.96875 163.160156 311.859375 163.183594 311.75 163.207031 C 311.09375 163.355469 310.4375 163.507812 309.777344 163.667969 C 309.417969 163.753906 309.058594 163.839844 308.699219 163.929688 C 307.566406 164.210938 306.421875 164.503906 305.269531 164.8125 C 304.957031 164.894531 304.640625 164.976562 304.328125 165.0625 C 303.960938 165.164062 303.589844 165.265625 303.21875 165.367188 C 302.480469 165.574219 301.734375 165.785156 300.984375 166.003906 C 300.679688 166.089844 300.371094 166.179688 300.066406 166.273438 C 299.25 166.511719 298.429688 166.761719 297.601562 167.011719 C 297.222656 167.128906 296.84375 167.246094 296.460938 167.367188 C 296.082031 167.484375 295.699219 167.605469 295.316406 167.726562 C 292.207031 168.71875 289.042969 169.796875 285.832031 170.957031 C 285.492188 171.082031 285.152344 171.203125 284.8125 171.328125 C 284.019531 171.617188 283.226562 171.910156 282.429688 172.210938 C 282.03125 172.359375 281.628906 172.511719 281.230469 172.664062 C 280.875 172.796875 280.519531 172.933594 280.164062 173.070312 C 279.320312 173.394531 278.472656 173.726562 277.621094 174.0625 C 277.289062 174.191406 276.957031 174.324219 276.625 174.457031 C 276.320312 174.578125 276.011719 174.699219 275.703125 174.824219 C 275.332031 174.972656 274.960938 175.125 274.585938 175.277344 C 273.5625 175.691406 272.53125 176.113281 271.496094 176.546875 C 271.097656 176.710938 270.699219 176.878906 270.304688 177.046875 C 269.894531 177.21875 269.484375 177.390625 269.074219 177.566406 C 268.253906 177.917969 267.429688 178.269531 266.605469 178.628906 C 266.320312 178.75 266.035156 178.875 265.75 179 C 265.394531 179.15625 265.039062 179.3125 264.679688 179.472656 C 264.136719 179.710938 263.59375 179.953125 263.050781 180.195312 C 261.417969 180.921875 259.78125 181.664062 258.140625 182.425781 C 257.636719 182.65625 257.136719 182.890625 256.632812 183.125 C 256.214844 183.324219 255.796875 183.519531 255.378906 183.714844 C 254.957031 183.914062 254.539062 184.109375 254.121094 184.3125 C 253.214844 184.742188 252.308594 185.175781 251.402344 185.613281 C 250.898438 185.855469 250.394531 186.101562 249.890625 186.351562 C 249.335938 186.617188 248.785156 186.890625 248.230469 187.164062 C 247.109375 187.71875 245.984375 188.28125 244.859375 188.84375 C 244.320312 189.117188 243.785156 189.386719 243.246094 189.664062 C 242.8125 189.882812 242.375 190.105469 241.9375 190.332031 C 240.683594 190.976562 239.425781 191.628906 238.167969 192.285156 C 237.65625 192.550781 237.144531 192.820312 236.632812 193.09375 C 234.273438 194.339844 231.90625 195.613281 229.539062 196.914062 C 229.105469 197.152344 228.667969 197.390625 228.230469 197.636719 C 227.550781 198.011719 226.871094 198.386719 226.191406 198.769531 C 225.34375 199.242188 224.496094 199.71875 223.648438 200.199219 C 222.953125 200.59375 222.253906 200.988281 221.558594 201.386719 C 221.007812 201.703125 220.453125 202.019531 219.902344 202.339844 C 219.34375 202.660156 218.785156 202.980469 218.230469 203.308594 C 217.675781 203.628906 217.121094 203.953125 216.566406 204.277344 C 216.015625 204.601562 215.460938 204.929688 214.910156 205.253906 C 214.355469 205.582031 213.804688 205.910156 213.25 206.238281 C 212.914062 206.441406 212.574219 206.644531 212.238281 206.84375 C 211.886719 207.054688 211.53125 207.265625 211.179688 207.480469 C 210.691406 207.773438 210.203125 208.066406 209.714844 208.363281 C 208.6875 208.988281 207.664062 209.609375 206.640625 210.242188 C 204.988281 211.257812 203.335938 212.285156 201.691406 213.320312 C 201.15625 213.660156 200.621094 214 200.089844 214.335938 C 199.421875 214.761719 198.753906 215.1875 198.085938 215.613281 C 197.667969 215.882812 197.25 216.152344 196.832031 216.417969 C 196.488281 216.640625 196.144531 216.863281 195.796875 217.089844 C 195.445312 217.316406 195.09375 217.542969 194.742188 217.773438 C 191.667969 219.777344 188.613281 221.804688 185.59375 223.859375 C 185.082031 224.207031 184.570312 224.558594 184.058594 224.910156 C 182.992188 225.640625 181.925781 226.375 180.863281 227.117188 C 180.339844 227.480469 179.820312 227.84375 179.296875 228.210938 C 178.796875 228.5625 178.292969 228.914062 177.789062 229.269531 C 177.773438 229.28125 177.757812 229.292969 177.742188 229.304688 C 176.707031 230.039062 175.675781 230.773438 174.648438 231.507812 C 173.734375 232.164062 172.824219 232.820312 171.917969 233.480469 C 171.804688 233.5625 171.695312 233.644531 171.582031 233.726562 C 171.074219 234.09375 170.566406 234.46875 170.0625 234.835938 C 169.558594 235.207031 169.058594 235.578125 168.558594 235.945312 C 168.050781 236.320312 167.550781 236.695312 167.046875 237.070312 C 166.046875 237.816406 165.050781 238.566406 164.066406 239.3125 C 163.628906 239.644531 163.191406 239.976562 162.757812 240.308594 C 162.699219 240.351562 162.644531 240.394531 162.585938 240.4375 C 162.097656 240.816406 161.605469 241.191406 161.117188 241.566406 C 160.632812 241.941406 160.144531 242.316406 159.660156 242.695312 C 159.207031 243.046875 158.753906 243.398438 158.304688 243.753906 C 158.269531 243.777344 158.242188 243.804688 158.210938 243.828125 C 157.730469 244.203125 157.25 244.582031 156.769531 244.960938 C 156.292969 245.335938 155.816406 245.714844 155.339844 246.09375 C 154.867188 246.472656 154.394531 246.851562 153.921875 247.230469 C 152.976562 247.988281 152.042969 248.746094 151.113281 249.503906 C 150.277344 250.1875 149.445312 250.871094 148.625 251.554688 C 148.53125 251.632812 148.441406 251.707031 148.347656 251.785156 C 147.890625 252.164062 147.433594 252.542969 146.984375 252.925781 C 146.53125 253.304688 146.078125 253.6875 145.628906 254.066406 C 145.179688 254.445312 144.730469 254.828125 144.285156 255.207031 C 143.84375 255.589844 143.398438 255.972656 142.957031 256.351562 C 142.515625 256.730469 142.078125 257.113281 141.640625 257.492188 C 106.289062 288.273438 84.382812 319.085938 94.664062 337.703125 C 94.714844 337.5625 94.765625 337.421875 94.820312 337.28125 C 107.933594 301.621094 146.40625 267.074219 180.492188 241.464844 C 187.714844 236.039062 194.738281 231.015625 201.28125 226.46875 C 201.34375 226.421875 201.40625 226.382812 201.464844 226.339844 C 201.496094 226.320312 201.523438 226.300781 201.546875 226.28125 C 219.699219 212.316406 234.945312 202.203125 245.882812 195.46875 C 251.273438 192.152344 255.617188 189.652344 258.742188 187.917969 C 262.464844 185.855469 264.46875 184.871094 264.46875 184.871094 C 282.773438 173.347656 314.839844 163.554688 343.621094 160.503906 C 341.28125 160.226562 338.824219 160.09375 336.25 160.09375 Z M 336.253906 160.09375 " fill-opacity="1" fill-rule="nonzero"/></g><path fill="#9f55ff" d="M 222.007812 211.230469 C 222.007812 212.917969 220.996094 215.71875 219.152344 219.390625 C 201.363281 254.796875 106.078125 370.664062 94.664062 337.703125 C 94.878906 337.589844 95.09375 337.472656 95.3125 337.355469 C 102.9375 333.21875 112.363281 326.371094 122.457031 317.921875 C 148.765625 295.894531 179.597656 262.96875 194.824219 238.726562 L 194.828125 238.722656 C 197.644531 234.234375 199.925781 230.046875 201.546875 226.28125 C 208.855469 220.660156 215.695312 215.660156 221.964844 211.257812 C 221.980469 211.25 221.992188 211.238281 222.007812 211.230469 Z M 222.007812 211.230469 " fill-opacity="1" fill-rule="nonzero"/><g mask="url(#3a4f27022f)"><g transform="matrix(1, 0, 0, 1, 194, 184)"><g clip-path="url(#f012224c92)"><g clip-path="url(#848e78d19c)"><path fill="#340087" d="M 70.46875 0.871094 C 70.4375 0.960938 70.402344 1.050781 70.367188 1.140625 C 70.355469 1.171875 70.339844 1.207031 70.328125 1.246094 C 70.320312 1.269531 70.3125 1.289062 70.304688 1.308594 C 70.289062 1.347656 70.269531 1.394531 70.253906 1.441406 C 70.25 1.460938 70.242188 1.480469 70.230469 1.496094 C 70.226562 1.515625 70.214844 1.539062 70.207031 1.554688 C 70.195312 1.59375 70.179688 1.632812 70.164062 1.675781 C 70.132812 1.753906 70.097656 1.839844 70.0625 1.929688 C 70.007812 2.070312 69.945312 2.21875 69.882812 2.386719 C 69.84375 2.488281 69.800781 2.589844 69.757812 2.699219 C 69.734375 2.757812 69.710938 2.820312 69.6875 2.882812 C 69.660156 2.945312 69.636719 3.007812 69.609375 3.070312 C 69.09375 4.367188 68.328125 6.242188 67.28125 8.722656 C 67.183594 8.953125 67.085938 9.1875 66.984375 9.425781 C 66.871094 9.691406 66.753906 9.964844 66.636719 10.246094 C 64.519531 11.273438 62.425781 12.328125 60.363281 13.410156 C 54.097656 16.691406 48.078125 20.199219 42.441406 23.734375 C 36.144531 27.683594 30.324219 31.660156 25.152344 35.390625 C 10.527344 45.929688 1.085938 54.488281 0.828125 54.722656 C 3.644531 50.234375 5.925781 46.046875 7.546875 42.28125 C 14.855469 36.660156 21.695312 31.660156 27.964844 27.257812 C 27.980469 27.25 27.992188 27.238281 28.007812 27.230469 C 37.300781 20.707031 45.359375 15.488281 51.882812 11.46875 C 57.273438 8.152344 61.617188 5.652344 64.742188 3.917969 C 68.464844 1.855469 70.46875 0.871094 70.46875 0.871094 Z M 70.46875 0.871094 " fill-opacity="1" fill-rule="nonzero"/></g></g></g></g><path fill="#9f55ff" d="M 336.6875 159.761719 C 336.6875 159.761719 336.699219 159.777344 336.703125 159.78125 C 220.644531 155.597656 95.859375 274.011719 67.164062 332.457031 C 62.507812 345.550781 60.605469 356.722656 71.183594 363.941406 L 71.09375 364 C 43.632812 346.160156 67.03125 280.144531 213.101562 188.316406 C 214.289062 187.574219 251.058594 170.355469 251.894531 170.15625 C 252.890625 169.828125 253.910156 169.492188 254.945312 169.15625 C 273.460938 163.140625 298.140625 156.195312 336.6875 159.761719 Z M 336.6875 159.761719 " fill-opacity="1" fill-rule="nonzero"/><path fill="#ebdcff" d="M 337.769531 159.867188 C 337.417969 159.832031 336.9375 160.035156 336.703125 159.78125 C 337.0625 159.808594 337.414062 159.835938 337.769531 159.867188 Z M 337.769531 159.867188 " fill-opacity="1" fill-rule="nonzero"/><g clip-path="url(#15cdc19a68)"><path fill="#340087" d="M 86.824219 173.046875 C 56.660156 200.003906 34.59375 184.871094 31.722656 159.050781 C 30.925781 151.886719 31.773438 144.640625 34 137.785156 C 37.742188 126.269531 44.484375 113.761719 53.410156 101.21875 C 1.019531 188.316406 86.824219 173.046875 86.824219 173.046875 Z M 86.824219 173.046875 " fill-opacity="1" fill-rule="nonzero"/></g><g clip-path="url(#bdc06d46b5)"><path fill="#340087" d="M 264.613281 184.625 C 264.578125 184.71875 264.402344 185.050781 264.367188 185.140625 C 264.355469 185.175781 264.339844 185.214844 264.328125 185.246094 C 264.320312 185.269531 264.3125 185.289062 264.304688 185.308594 C 264.289062 185.355469 264.269531 185.398438 264.253906 185.441406 C 264.25 185.460938 264.242188 185.480469 264.230469 185.496094 C 212.648438 322.125 119.863281 376.835938 80.355469 367.785156 C 81.175781 367.628906 170.714844 375.125 254.363281 197.410156 C 255.828125 194.304688 257.289062 191.140625 258.746094 187.917969 C 262.46875 185.707031 264.613281 184.625 264.613281 184.625 Z M 264.613281 184.625 " fill-opacity="1" fill-rule="nonzero"/></g><g clip-path="url(#8911ba3764)"><path fill="#9f55ff" d="M 254.007812 94.417969 C 251.503906 98.367188 248.667969 102.230469 245.617188 105.976562 C 234.640625 119.464844 220.878906 131.507812 209.804688 140.855469 C 319.742188 34.476562 235.570312 -30.179688 114.964844 40.847656 C 116.484375 39.757812 118.007812 38.6875 119.539062 37.628906 C 134.492188 26.785156 149.851562 18.929688 164.75 13.789062 C 234.960938 -10.4375 294.972656 25.664062 254.007812 94.417969 Z M 254.007812 94.417969 " fill-opacity="1" fill-rule="nonzero"/></g><path fill="#340087" d="M 134.28125 171.808594 C 143.257812 162.15625 154.558594 151.367188 166.335938 139.835938 C 170.054688 136.191406 173.824219 132.472656 177.582031 128.699219 C 178.832031 127.441406 180.082031 126.175781 181.328125 124.90625 C 182.574219 123.632812 183.820312 122.355469 185.058594 121.070312 C 186.914062 119.144531 188.757812 117.203125 190.585938 115.253906 C 194.203125 111.386719 197.742188 107.472656 201.148438 103.527344 C 201.15625 103.515625 201.164062 103.507812 201.171875 103.496094 C 208.863281 94.578125 215.867188 85.492188 221.527344 76.371094 C 221.542969 76.34375 221.558594 76.320312 221.574219 76.292969 C 226.128906 69.136719 229.882812 62 231.75 55.78125 C 231.75 55.777344 231.75 55.777344 231.75 55.773438 C 231.769531 55.726562 231.785156 55.679688 231.800781 55.636719 C 231.828125 55.527344 231.859375 55.425781 231.886719 55.320312 C 231.890625 55.289062 231.902344 55.261719 231.910156 55.230469 C 231.914062 55.214844 231.917969 55.203125 231.921875 55.1875 C 231.929688 55.148438 231.9375 55.113281 231.949219 55.070312 C 231.992188 54.90625 232.03125 54.746094 232.070312 54.582031 C 232.113281 54.410156 232.152344 54.238281 232.191406 54.070312 C 232.226562 53.90625 232.261719 53.746094 232.296875 53.589844 C 232.335938 53.398438 232.375 53.210938 232.414062 53.023438 C 232.4375 52.886719 232.464844 52.75 232.488281 52.617188 C 232.496094 52.59375 232.5 52.574219 232.5 52.554688 C 232.523438 52.4375 232.542969 52.320312 232.5625 52.207031 C 232.578125 52.117188 232.59375 52.03125 232.605469 51.941406 C 232.628906 51.792969 232.652344 51.640625 232.675781 51.492188 C 232.699219 51.34375 232.71875 51.195312 232.734375 51.046875 C 232.792969 50.632812 232.832031 50.222656 232.863281 49.824219 C 232.875 49.664062 232.886719 49.503906 232.894531 49.347656 C 233.03125 47.03125 232.78125 45.070312 232.199219 43.429688 C 231.746094 42.148438 231.089844 41.058594 230.257812 40.148438 C 230.191406 40.074219 230.125 40.007812 230.058594 39.9375 C 229.992188 39.863281 229.921875 39.796875 229.851562 39.730469 C 227.328125 37.300781 223.40625 36.285156 218.660156 36.285156 C 218.417969 36.285156 218.171875 36.285156 217.921875 36.292969 C 217.851562 36.296875 217.777344 36.296875 217.707031 36.296875 C 217.5 36.300781 217.292969 36.308594 217.085938 36.320312 C 217.070312 36.320312 217.058594 36.320312 217.042969 36.324219 C 216.78125 36.332031 216.519531 36.347656 216.257812 36.363281 C 215.992188 36.378906 215.730469 36.402344 215.460938 36.425781 C 215.441406 36.425781 215.421875 36.425781 215.402344 36.429688 C 215.128906 36.449219 214.859375 36.476562 214.585938 36.503906 C 214.324219 36.53125 214.0625 36.5625 213.796875 36.59375 C 213.566406 36.621094 213.328125 36.648438 213.09375 36.683594 C 212.945312 36.699219 212.796875 36.722656 212.648438 36.742188 C 212.277344 36.792969 211.90625 36.851562 211.53125 36.910156 C 211.277344 36.949219 211.015625 36.996094 210.753906 37.039062 C 209.675781 37.226562 208.570312 37.445312 207.457031 37.695312 C 207.199219 37.753906 206.945312 37.808594 206.6875 37.871094 C 206.484375 37.917969 206.277344 37.964844 206.074219 38.015625 C 205.882812 38.058594 205.695312 38.105469 205.503906 38.15625 C 205.410156 38.175781 205.320312 38.199219 205.226562 38.226562 C 205.109375 38.253906 204.992188 38.28125 204.875 38.3125 C 204.804688 38.328125 204.734375 38.347656 204.667969 38.367188 C 203.125 38.765625 201.558594 39.210938 199.980469 39.695312 C 194.253906 41.464844 188.375 43.769531 182.875 46.246094 C 182.296875 46.503906 181.722656 46.769531 181.152344 47.03125 C 181.140625 47.039062 181.128906 47.042969 181.117188 47.050781 C 175.625 49.589844 170.585938 52.269531 166.546875 54.703125 C 166.167969 54.933594 165.800781 55.15625 165.449219 55.375 C 163.378906 56.671875 161.773438 57.808594 160.410156 58.820312 C 160.195312 58.984375 159.980469 59.144531 159.773438 59.296875 C 159.765625 59.308594 159.757812 59.3125 159.75 59.320312 C 159.648438 59.398438 159.550781 59.480469 159.453125 59.558594 C 154.683594 58.730469 141.109375 62.765625 135.902344 73.609375 C 132.320312 76.890625 127.417969 79.820312 123.785156 83.363281 C 107.222656 98.375 82.28125 125.664062 72.53125 146.210938 C 65.488281 161.0625 66.378906 172.390625 84.097656 173.027344 C 84.964844 173.0625 85.871094 173.066406 86.824219 173.046875 C 86.824219 173.046875 59.585938 177.46875 63.507812 153.648438 C 64.027344 150.5 65.027344 147.449219 66.382812 144.5625 C 78.386719 119.039062 106.550781 87.988281 129.640625 71.171875 C 156.539062 50.609375 187.503906 34.925781 212.074219 31.1875 C 260.679688 23.789062 249.90625 100.679688 134.28125 171.808594 Z M 134.28125 171.808594 " fill-opacity="1" fill-rule="nonzero"/><path fill="#9f55ff" d="M 172.507812 84.878906 C 159.710938 113.171875 146.03125 143.882812 134.285156 171.796875 C 134.585938 170.835938 156.976562 110.269531 164.277344 89.09375 C 171.636719 67.753906 159.453125 59.558594 159.453125 59.558594 C 170.761719 61.546875 177.425781 74.191406 172.507812 84.878906 Z M 172.507812 84.878906 " fill-opacity="1" fill-rule="nonzero"/><path fill="#340087" d="M 86.824219 173.046875 C 86.648438 173.203125 86.476562 173.359375 86.300781 173.515625 C 86.390625 173.359375 86.480469 173.207031 86.570312 173.050781 C 86.652344 173.050781 86.738281 173.046875 86.824219 173.046875 Z M 86.824219 173.046875 " fill-opacity="1" fill-rule="nonzero"/><path fill="#340087" d="M 191.160156 168.292969 C 161.007812 181.128906 110.320312 235.179688 102.917969 246.914062 C 95.632812 257.972656 82.984375 254.449219 75.867188 246.695312 C 75.851562 246.675781 75.832031 246.65625 75.816406 246.640625 C 75.730469 246.542969 75.644531 246.449219 75.558594 246.351562 C 75.1875 245.929688 74.832031 245.5 74.492188 245.054688 C 74.449219 244.996094 74.40625 244.9375 74.359375 244.878906 C 74.101562 244.53125 73.855469 244.179688 73.617188 243.820312 C 73.617188 243.820312 73.613281 243.820312 73.613281 243.816406 C 72.609375 242.246094 72.007812 240.550781 71.804688 238.722656 C 71.566406 236.546875 71.894531 234.1875 72.792969 231.644531 C 88.851562 182.390625 114.289062 120.800781 135.859375 73.746094 L 77.789062 236.207031 C 76.339844 240.253906 78.796875 244.722656 83.019531 245.519531 C 85.472656 245.980469 87.824219 245.539062 89.25 244.917969 C 91.964844 243.738281 94.316406 241.851562 96.167969 239.539062 C 104.511719 229.125 146.308594 179.316406 191.160156 168.292969 Z M 191.160156 168.292969 " fill-opacity="1" fill-rule="nonzero"/><g mask="url(#124dfef1ef)"><g transform="matrix(1, 0, 0, 1, 48, 17)"><g clip-path="url(#bb3fcbef83)"><g clip-path="url(#e290c6152a)"><path fill="#ebdcff" d="M 38.300781 156.515625 C 26.882812 156.753906 13.242188 155.339844 5.441406 146.007812 C -10.253906 126.171875 14.015625 90.984375 27.429688 75.253906 C 52.003906 46.625 83.03125 22.925781 118.316406 9.125 C 129.515625 4.925781 141.25 1.855469 153.238281 1.0625 C 164.085938 0.402344 175.320312 0.632812 185.691406 4.402344 C 199.179688 9.3125 206.199219 20.09375 205.425781 34.410156 C 203.214844 69.441406 163.726562 114.113281 135.613281 133.285156 C 139.234375 130.339844 142.738281 127.269531 146.101562 124.054688 C 162.78125 108.03125 177.402344 89.683594 188.445312 69.351562 C 195.582031 55.808594 205.207031 33.460938 195.878906 19.3125 C 187.378906 7.039062 167.210938 6.917969 153.71875 7.839844 C 108.921875 11.726562 61.027344 46.097656 31.5625 78.828125 C 7.015625 106.0625 -19.804688 153.421875 38.304688 156.519531 Z M 38.300781 156.515625 " fill-opacity="1" fill-rule="nonzero"/></g></g></g></g><g mask="url(#5d02c859d9)"><g transform="matrix(1, 0, 0, 1, 86, 165)"><g clip-path="url(#abff8d9a8d)"><g clip-path="url(#368bc25d8c)"><path fill="#ebdcff" d="M 212.160156 0.640625 C 155.886719 13.011719 89.667969 56.089844 47.308594 94.855469 C 44.214844 97.722656 41.085938 100.707031 38.101562 103.699219 C 25.230469 116.78125 12.808594 130.875 4.949219 147.609375 C 4.273438 149.042969 3.855469 150.148438 3.292969 151.53125 C 2.28125 154.183594 1.4375 156.902344 0.824219 159.691406 C 1.375 156.019531 2.441406 152.328125 3.714844 148.832031 C 5.445312 144.320312 7.550781 139.949219 9.988281 135.773438 C 43.566406 78.355469 146.304688 10.214844 212.160156 0.640625 Z M 212.160156 0.640625 " fill-opacity="1" fill-rule="nonzero"/></g></g></g></g><g mask="url(#d1aa3f9cd6)"><g transform="matrix(1, 0, 0, 1, 103, 68)"><g clip-path="url(#f88e9a26b8)"><g clip-path="url(#29956e0c98)"><path fill="#ebdcff" d="M 55.59375 7.472656 C 55.59375 7.472656 0.933594 135.136719 0.933594 135.136719 L 47.179688 4.1875 C 48.011719 1.835938 50.589844 0.597656 52.945312 1.429688 C 55.402344 2.289062 56.625 5.085938 55.59375 7.472656 Z M 55.59375 7.472656 " fill-opacity="1" fill-rule="nonzero"/></g></g></g></g><path fill="#ebdcff" d="M 193.179688 11.875 C 203.539062 10.566406 214.121094 10.445312 224.40625 12.484375 C 255.46875 18.621094 267.472656 42.289062 258.007812 71.800781 C 256.820312 75.539062 255.402344 79.195312 253.777344 82.757812 C 253.242188 83.949219 252.65625 85.113281 252.089844 86.285156 C 253.140625 83.898438 254.132812 81.492188 255.046875 79.054688 C 257.730469 71.753906 259.714844 64.128906 260.121094 56.347656 C 261.46875 32.605469 246.496094 18.085938 224.222656 13.367188 C 214.054688 11.179688 203.519531 11.027344 193.179688 11.875 Z M 193.179688 11.875 " fill-opacity="1" fill-rule="nonzero"/><path fill="#ebdcff" d="M 97.875 69.175781 C 79.984375 87.042969 39.996094 130.167969 50.070312 156.960938 C 50.890625 159.101562 52.074219 161.171875 53.441406 163.011719 C 51.957031 161.230469 50.691406 159.207031 49.785156 157.078125 C 38.519531 129.667969 78.660156 86.351562 97.875 69.175781 Z M 97.875 69.175781 " fill-opacity="1" fill-rule="nonzero"/><path fill="#ebdcff" d="M 150.175781 72.1875 C 136.054688 114.515625 120.953125 157.230469 105.457031 199.074219 C 105.457031 199.074219 103.929688 203.136719 103.929688 203.136719 C 103.929688 203.136719 105.292969 199.015625 105.292969 199.015625 C 119.511719 156.71875 134.578125 113.996094 150.175781 72.1875 Z M 150.175781 72.1875 " fill-opacity="1" fill-rule="nonzero"/><path fill="#ebdcff" d="M 86.824219 324.691406 C 97.683594 277.234375 162.5 227.453125 203.078125 203.484375 C 232.550781 186.253906 264.152344 170.945312 298.160156 165.640625 C 286.855469 167.375 275.816406 170.507812 265.054688 174.328125 C 206.65625 195.375 130.742188 245.996094 97.683594 299.179688 C 92.894531 307.105469 88.914062 315.636719 86.824219 324.691406 Z M 86.824219 324.691406 " fill-opacity="1" fill-rule="nonzero"/><g mask="url(#c8776e7da0)"><g transform="matrix(1, 0, 0, 1, 112, 153)"><g clip-path="url(#ff998c5282)"><g clip-path="url(#e7ff669171)"><path fill="#ebdcff" d="M 127.359375 15.1875 C 123.367188 10.679688 118.03125 7.472656 112.449219 5.328125 C 105.457031 2.6875 97.863281 1.882812 90.433594 2.433594 C 77.324219 3.398438 64.792969 8.179688 53.175781 14.125 C 44.890625 18.425781 36.796875 23.574219 29.160156 28.957031 C 19.308594 35.945312 9.933594 43.613281 0.710938 51.492188 C 10.324219 41.839844 20.691406 32.789062 31.769531 24.789062 C 49.742188 12.011719 71.757812 0.160156 94.355469 0.445312 C 99.15625 0.550781 103.96875 1.238281 108.558594 2.679688 C 115.789062 4.988281 122.738281 9.082031 127.363281 15.1875 Z M 127.359375 15.1875 " fill-opacity="1" fill-rule="nonzero"/></g></g></g></g><path fill="#ebdcff" d="M 126.359375 191.679688 C 147.078125 173.113281 175.605469 153.679688 204.308594 153.261719 C 207.59375 153.222656 210.882812 153.488281 214.121094 154.066406 C 216.277344 154.445312 218.40625 154.976562 220.480469 155.660156 C 216.28125 154.4375 211.9375 153.785156 207.582031 153.660156 C 177.757812 153.042969 148.386719 173.175781 126.359375 191.675781 Z M 126.359375 191.679688 " fill-opacity="1" fill-rule="nonzero"/></svg>