<svg xmlns="http://www.w3.org/2000/svg" xmlns:xlink="http://www.w3.org/1999/xlink" width="500" zoomAndPan="magnify" viewBox="0 0 375 374.999991" height="500" preserveAspectRatio="xMidYMid meet" version="1.0"><defs><filter x="0%" y="0%" width="100%" height="100%" id="868eb21c57"><feColorMatrix values="0 0 0 0 1 0 0 0 0 1 0 0 0 0 1 0 0 0 1 0" color-interpolation-filters="sRGB"/></filter><g/><mask id="9b0763260a"><g filter="url(#868eb21c57)"><rect x="-37.5" width="450" fill="#000000" y="-37.499999" height="449.999989" fill-opacity="0.5"/></g></mask><clipPath id="41ce5c0153"><path d="M 0.800781 1 L 233.839844 1 L 233.839844 234.480469 L 0.800781 234.480469 Z M 0.800781 1 " clip-rule="nonzero"/></clipPath><clipPath id="0b1cebe205"><rect x="0" width="234" y="0" height="235"/></clipPath><clipPath id="f8d394edd2"><path d="M 53.320312 3.886719 L 257 3.886719 L 257 217 L 53.320312 217 Z M 53.320312 3.886719 " clip-rule="nonzero"/></clipPath><mask id="423b7246ef"><g filter="url(#868eb21c57)"><rect x="-37.5" width="450" fill="#000000" y="-37.499999" height="449.999989" fill-opacity="0.5"/></g></mask><clipPath id="3819a15cfb"><path d="M 0.28125 0.679688 L 43.238281 0.679688 L 43.238281 21.558594 L 0.28125 21.558594 Z M 0.28125 0.679688 " clip-rule="nonzero"/></clipPath><clipPath id="281c604d6f"><rect x="0" width="44" y="0" height="22"/></clipPath><clipPath id="1ca20da103"><path d="M 78 134 L 321.820312 134 L 321.820312 315.136719 L 78 315.136719 Z M 78 134 " clip-rule="nonzero"/></clipPath><mask id="78acd7bf0c"><g filter="url(#868eb21c57)"><rect x="-37.5" width="450" fill="#000000" y="-37.499999" height="449.999989" fill-opacity="0.5"/></g></mask><clipPath id="716cab4efa"><path d="M 0.601562 1 L 142.921875 1 L 142.921875 146.480469 L 0.601562 146.480469 Z M 0.601562 1 " clip-rule="nonzero"/></clipPath><clipPath id="e65268e5d2"><rect x="0" width="143" y="0" height="147"/></clipPath><clipPath id="51fad88475"><path d="M 105 136 L 321.820312 136 L 321.820312 289 L 105 289 Z M 105 136 " clip-rule="nonzero"/></clipPath><mask id="0c104ecce7"><g filter="url(#868eb21c57)"><rect x="-37.5" width="450" fill="#000000" y="-37.499999" height="449.999989" fill-opacity="0.5"/></g></mask><clipPath id="f46ea89f25"><path d="M 0.679688 0.199219 L 60.921875 0.199219 L 60.921875 47 L 0.679688 47 Z M 0.679688 0.199219 " clip-rule="nonzero"/></clipPath><clipPath id="83eeee1428"><rect x="0" width="61" y="0" height="47"/></clipPath><clipPath id="6c8d82a530"><path d="M 53.320312 85 L 101 85 L 101 160 L 53.320312 160 Z M 53.320312 85 " clip-rule="nonzero"/></clipPath><clipPath id="57af10b053"><path d="M 95 157 L 254 157 L 254 315.136719 L 95 315.136719 Z M 95 157 " clip-rule="nonzero"/></clipPath><clipPath id="2d3286b1bc"><path d="M 125 3.886719 L 257 3.886719 L 257 120 L 125 120 Z M 125 3.886719 " clip-rule="nonzero"/></clipPath><mask id="162f7b7f99"><g filter="url(#868eb21c57)"><rect x="-37.5" width="450" fill="#000000" y="-37.499999" height="449.999989" fill-opacity="0.2"/></g></mask><clipPath id="d2c95b32bb"><path d="M 0.679688 0.441406 L 177.320312 0.441406 L 177.320312 135 L 0.679688 135 Z M 0.679688 0.441406 " clip-rule="nonzero"/></clipPath><clipPath id="50fbf94dce"><rect x="0" width="178" y="0" height="136"/></clipPath><mask id="7640394fd8"><g filter="url(#868eb21c57)"><rect x="-37.5" width="450" fill="#000000" y="-37.499999" height="449.999989" fill-opacity="0.2"/></g></mask><clipPath id="9f3b6e74de"><path d="M 0.800781 0.640625 L 182.71875 0.640625 L 182.71875 137.679688 L 0.800781 137.679688 Z M 0.800781 0.640625 " clip-rule="nonzero"/></clipPath><clipPath id="2d4b0c9577"><rect x="0" width="183" y="0" height="138"/></clipPath><mask id="1b25428d37"><g filter="url(#868eb21c57)"><rect x="-37.5" width="450" fill="#000000" y="-37.499999" height="449.999989" fill-opacity="0.2"/></g></mask><clipPath id="297ac63c6f"><path d="M 0.441406 0.839844 L 48 0.839844 L 48 116.28125 L 0.441406 116.28125 Z M 0.441406 0.839844 " clip-rule="nonzero"/></clipPath><clipPath id="3805f59d71"><rect x="0" width="49" y="0" height="117"/></clipPath><mask id="274575f129"><g filter="url(#868eb21c57)"><rect x="-37.5" width="450" fill="#000000" y="-37.499999" height="449.999989" fill-opacity="0.2"/></g></mask><clipPath id="f89debf46d"><path d="M 0.121094 0.320312 L 109.320312 0.320312 L 109.320312 44.480469 L 0.121094 44.480469 Z M 0.121094 0.320312 " clip-rule="nonzero"/></clipPath><clipPath id="5d3fb00a7c"><rect x="0" width="110" y="0" height="45"/></clipPath></defs><path fill="#ff1f70" d="M 304.003906 159.664062 C 304.003906 223.554688 252.574219 275.429688 188.855469 276.15625 C 188.40625 276.164062 187.953125 276.164062 187.5 276.164062 C 173.132812 276.164062 159.371094 273.566406 146.664062 268.808594 C 141.300781 266.800781 136.125 264.410156 131.171875 261.667969 C 123.964844 257.679688 117.222656 252.945312 111.054688 247.574219 C 88.75 228.164062 73.902344 200.40625 71.378906 169.164062 C 71.125 166.03125 70.996094 162.859375 70.996094 159.664062 C 70.996094 95.320312 123.15625 43.160156 187.5 43.160156 C 190.574219 43.160156 193.625 43.28125 196.640625 43.515625 C 207.054688 44.320312 217.082031 46.496094 226.546875 49.863281 C 236.765625 53.5 246.328125 58.519531 255.003906 64.699219 C 281 83.210938 299.074219 112.132812 303.132812 145.378906 C 303.308594 146.789062 303.453125 148.203125 303.578125 149.625 C 303.859375 152.933594 304.003906 156.28125 304.003906 159.664062 Z M 304.003906 159.664062 " fill-opacity="1" fill-rule="nonzero"/><g mask="url(#9b0763260a)"><g transform="matrix(1, 0, 0, 1, 70, 42)"><g clip-path="url(#0b1cebe205)"><g clip-path="url(#41ce5c0153)"><path fill="#340087" d="M 233.132812 103.378906 C 211.355469 102.789062 194.621094 106.339844 182.054688 110.167969 C 176.828125 95.371094 151.546875 83.796875 136.671875 87.90625 C 148.867188 77.65625 165.082031 63.199219 174.660156 48 C 179.988281 38.644531 183.332031 30.222656 185.003906 22.699219 C 176.328125 16.519531 166.765625 11.5 156.546875 7.863281 C 156.582031 21.671875 137.914062 46.304688 129.25 55.800781 C 112.207031 75.738281 88.820312 96.359375 71.765625 114.5 C 81.859375 90.511719 93.617188 64.117188 104.617188 39.796875 C 105.902344 37.007812 106.265625 34.058594 105.878906 31.261719 C 105.039062 24.761719 99.96875 19.152344 93.398438 18.039062 C 102.890625 11.074219 114.773438 5.316406 126.640625 1.515625 C 123.625 1.28125 120.574219 1.160156 117.5 1.160156 C 53.15625 1.160156 0.996094 53.320312 0.996094 117.664062 C 0.996094 120.859375 1.125 124.03125 1.378906 127.164062 C 9.75 129.105469 20.210938 126.011719 30.972656 115.574219 C -9.476562 115.582031 38.8125 62.757812 50.03125 50.933594 C 57.039062 43.363281 65.0625 36.257812 73.175781 30.097656 C 54.648438 72.871094 29.710938 116.808594 18.488281 161.972656 C 18.726562 164.609375 20.207031 166.917969 21.980469 168.824219 C 27.367188 178.125 39.410156 186.597656 45.675781 177.09375 C 53.128906 166.636719 96.171875 118.988281 124.535156 110.476562 C 125.644531 110.144531 126.785156 109.921875 127.9375 109.875 C 137.824219 109.46875 139.921875 120.128906 139.503906 128.695312 C 93.628906 157.613281 61.808594 183.5625 41.054688 205.574219 C 47.222656 210.945312 53.964844 215.679688 61.171875 219.667969 C 80.578125 197.238281 106.910156 177.179688 129.574219 161.328125 C 128.179688 164.5625 126.21875 168.160156 123.796875 172.015625 C 113.09375 188.386719 95.609375 208.984375 76.664062 226.808594 C 89.371094 231.566406 103.132812 234.164062 117.5 234.164062 C 117.953125 234.164062 118.40625 234.164062 118.855469 234.15625 C 142.425781 208.898438 165.632812 173.265625 183.683594 125.714844 C 195.640625 118.195312 214.410156 111.539062 233.578125 107.625 C 233.453125 106.203125 233.308594 104.789062 233.132812 103.378906 Z M 233.132812 103.378906 " fill-opacity="1" fill-rule="nonzero"/></g></g></g></g><g clip-path="url(#f8d394edd2)"><path fill="#7c00ff" d="M 251.316406 139.898438 C 245.609375 127.394531 222.238281 115.789062 207.558594 119.339844 C 207.421875 119.375 207.28125 119.410156 207.144531 119.445312 C 207.113281 119.453125 207.082031 119.460938 207.054688 119.46875 C 207.007812 119.480469 206.964844 119.496094 206.917969 119.507812 C 206.792969 119.542969 206.714844 119.566406 206.683594 119.574219 C 206.675781 119.574219 206.671875 119.574219 206.671875 119.574219 C 216.1875 111.542969 228.015625 101.191406 237.449219 89.601562 C 240.070312 86.378906 242.507812 83.0625 244.660156 79.667969 C 279.867188 20.578125 228.292969 -10.449219 167.949219 10.367188 C 155.144531 14.785156 141.941406 21.539062 129.09375 30.855469 L 129.089844 30.855469 C 127.777344 31.765625 126.464844 32.6875 125.160156 33.625 C 94.859375 55.335938 67.527344 83.886719 55.574219 116.9375 C 46.246094 144.417969 66.808594 177.109375 99.835938 148.257812 C 100.0625 148.058594 100.292969 147.855469 100.527344 147.648438 C 100.675781 147.511719 100.824219 147.378906 100.972656 147.242188 C 100.902344 147.246094 100.828125 147.246094 100.757812 147.246094 C 100.550781 147.25 100.351562 147.253906 100.152344 147.253906 C 99.628906 147.257812 99.125 147.246094 98.628906 147.226562 C 83.402344 146.679688 82.636719 136.941406 88.691406 124.179688 C 97.925781 104.714844 123.019531 78.214844 136.855469 66.5625 C 137.570312 65.960938 138.25 65.398438 138.902344 64.878906 C 139.996094 64 141 63.246094 141.886719 62.625 C 142.339844 62.308594 142.761719 62.027344 143.15625 61.78125 C 143.160156 61.78125 143.164062 61.777344 143.167969 61.773438 C 143.171875 61.773438 143.175781 61.769531 143.175781 61.769531 C 143.15625 61.8125 143.136719 61.855469 143.117188 61.902344 C 124.582031 102.339844 102.71875 155.273438 88.914062 197.605469 C 88.144531 199.792969 87.859375 201.820312 88.066406 203.6875 C 88.242188 205.257812 88.757812 206.71875 89.621094 208.066406 C 89.621094 208.070312 89.625 208.070312 89.625 208.070312 C 90.195312 208.933594 90.84375 209.761719 91.558594 210.539062 C 97.675781 217.207031 108.542969 220.234375 114.808594 210.730469 C 121.617188 199.929688 168.652344 148.414062 193.777344 142.195312 C 198.289062 141.078125 202.089844 141.417969 204.828125 143.71875 C 207.773438 146.1875 209.488281 150.921875 209.523438 158.53125 C 209.53125 159.125 209.523438 159.738281 209.503906 160.367188 C 209.570312 160.363281 209.640625 160.359375 209.710938 160.351562 C 209.964844 160.332031 210.238281 160.296875 210.539062 160.246094 C 212.992188 159.832031 216.664062 158.425781 221.300781 156.324219 C 226.96875 153.757812 234.074219 150.160156 242.140625 146.074219 C 243.539062 145.363281 245.355469 145.601562 247.027344 145.402344 C 247.675781 145.328125 248.304688 145.1875 248.875 144.898438 C 248.847656 144.78125 249.082031 144.53125 249.4375 144.21875 C 249.597656 144.078125 249.789062 143.921875 249.988281 143.761719 C 250.9375 142.992188 252.136719 142.09375 252.054688 141.835938 C 251.859375 141.1875 251.613281 140.542969 251.316406 139.898438 Z M 199.25 87.46875 C 199.25 87.46875 199.238281 87.488281 199.230469 87.496094 C 196.300781 90.886719 193.261719 94.25 190.152344 97.574219 C 188.582031 99.25 187 100.917969 185.402344 102.574219 C 184.339844 103.675781 183.269531 104.773438 182.199219 105.867188 L 182.195312 105.867188 C 181.125 106.960938 180.050781 108.046875 178.976562 109.128906 C 175.75 112.375 172.507812 115.570312 169.3125 118.699219 C 159.191406 128.605469 149.480469 137.875 141.765625 146.167969 C 151.859375 122.179688 163.617188 95.785156 174.617188 71.464844 C 178.535156 62.84375 173.894531 52.769531 165.078125 50.113281 C 164.746094 50.011719 164.40625 49.921875 164.0625 49.84375 C 163.84375 49.792969 163.621094 49.75 163.398438 49.707031 C 163.480469 49.640625 163.5625 49.570312 163.648438 49.5 C 163.65625 49.496094 163.664062 49.492188 163.671875 49.480469 C 164.1875 49.066406 164.773438 48.625 165.433594 48.164062 C 166.347656 47.515625 167.394531 46.828125 168.550781 46.113281 C 168.851562 45.925781 169.167969 45.730469 169.496094 45.535156 C 172.960938 43.441406 177.296875 41.140625 182.015625 38.957031 C 182.027344 38.949219 182.035156 38.945312 182.042969 38.941406 C 182.535156 38.714844 183.027344 38.488281 183.527344 38.265625 C 188.253906 36.136719 193.304688 34.15625 198.226562 32.636719 C 199.582031 32.21875 200.929688 31.835938 202.253906 31.492188 C 202.3125 31.476562 202.375 31.460938 202.433594 31.445312 C 202.535156 31.421875 202.636719 31.398438 202.734375 31.371094 C 202.816406 31.347656 202.894531 31.328125 202.976562 31.3125 C 203.136719 31.269531 203.300781 31.230469 203.460938 31.191406 C 203.640625 31.148438 203.816406 31.105469 203.992188 31.066406 C 204.210938 31.015625 204.433594 30.964844 204.652344 30.917969 C 205.609375 30.703125 206.558594 30.511719 207.488281 30.355469 C 207.710938 30.3125 207.933594 30.277344 208.15625 30.242188 C 208.476562 30.191406 208.796875 30.140625 209.113281 30.097656 C 209.242188 30.078125 209.367188 30.0625 209.496094 30.046875 C 209.699219 30.015625 209.902344 29.992188 210.101562 29.96875 C 210.332031 29.941406 210.554688 29.914062 210.78125 29.894531 C 211.015625 29.867188 211.246094 29.847656 211.480469 29.828125 C 211.496094 29.828125 211.515625 29.824219 211.53125 29.824219 C 211.761719 29.804688 211.988281 29.785156 212.214844 29.773438 C 212.441406 29.757812 212.667969 29.746094 212.894531 29.738281 C 212.90625 29.734375 212.914062 29.734375 212.929688 29.734375 C 213.109375 29.722656 213.285156 29.71875 213.460938 29.714844 C 213.523438 29.710938 213.585938 29.710938 213.648438 29.710938 C 213.859375 29.703125 214.074219 29.703125 214.28125 29.703125 C 218.359375 29.703125 221.730469 30.578125 223.898438 32.664062 C 223.960938 32.722656 224.019531 32.78125 224.078125 32.84375 C 224.132812 32.902344 224.191406 32.960938 224.25 33.027344 C 224.964844 33.808594 225.527344 34.742188 225.917969 35.84375 C 226.417969 37.253906 226.632812 38.9375 226.515625 40.929688 C 226.507812 41.066406 226.496094 41.203125 226.488281 41.339844 C 226.460938 41.679688 226.425781 42.035156 226.378906 42.390625 C 226.363281 42.515625 226.347656 42.644531 226.328125 42.773438 C 226.308594 42.902344 226.285156 43.03125 226.265625 43.160156 C 226.253906 43.234375 226.242188 43.3125 226.230469 43.386719 C 226.214844 43.484375 226.195312 43.585938 226.175781 43.6875 C 226.175781 43.703125 226.171875 43.722656 226.167969 43.738281 C 226.144531 43.855469 226.125 43.972656 226.101562 44.089844 C 226.070312 44.25 226.035156 44.414062 226.003906 44.578125 C 225.972656 44.710938 225.941406 44.847656 225.910156 44.988281 C 225.878906 45.132812 225.84375 45.28125 225.808594 45.429688 C 225.773438 45.570312 225.738281 45.710938 225.703125 45.851562 C 225.695312 45.882812 225.6875 45.917969 225.675781 45.949219 C 225.675781 45.960938 225.671875 45.972656 225.667969 45.984375 C 225.660156 46.011719 225.652344 46.039062 225.648438 46.0625 C 225.625 46.152344 225.601562 46.242188 225.574219 46.335938 C 225.5625 46.375 225.546875 46.414062 225.53125 46.453125 C 225.53125 46.457031 225.53125 46.457031 225.53125 46.460938 C 223.925781 51.804688 220.703125 57.9375 216.785156 64.089844 C 216.773438 64.109375 216.757812 64.132812 216.746094 64.15625 C 211.878906 71.992188 205.859375 79.804688 199.25 87.46875 Z M 199.25 87.46875 " fill-opacity="1" fill-rule="nonzero"/></g><path fill="#340087" d="M 209.503906 160.367188 C 209.523438 159.738281 209.53125 159.125 209.523438 158.53125 C 209.453125 143.839844 203.132812 139.875 193.777344 142.195312 C 193.777344 142.195312 213.601562 132.246094 226.101562 152.476562 C 220.761719 154.894531 211.898438 160.242188 209.503906 160.367188 Z M 209.503906 160.367188 " fill-opacity="1" fill-rule="nonzero"/><path fill="#9f55ff" d="M 249.988281 143.761719 C 247.160156 144.265625 247.167969 144.078125 246.019531 144.453125 C 237.679688 117.488281 207.34375 119.515625 206.683594 119.574219 C 206.714844 119.566406 206.792969 119.542969 206.917969 119.507812 C 206.964844 119.492188 207.007812 119.480469 207.054688 119.46875 C 207.082031 119.460938 207.113281 119.453125 207.144531 119.445312 C 207.28125 119.410156 207.421875 119.375 207.558594 119.339844 C 222.992188 115.609375 248.039062 128.628906 252.054688 141.835938 C 252.136719 142.09375 250.9375 142.992188 249.988281 143.761719 Z M 249.988281 143.761719 " fill-opacity="1" fill-rule="nonzero"/><g mask="url(#423b7246ef)"><g transform="matrix(1, 0, 0, 1, 209, 139)"><g clip-path="url(#281c604d6f)"><g clip-path="url(#3819a15cfb)"><path fill="#340087" d="M 40.988281 4.761719 C 40.789062 4.921875 40.597656 5.078125 40.4375 5.21875 C 39.632812 5.617188 38.828125 6.011719 38.027344 6.402344 C 22.472656 13.980469 7.414062 20.285156 1.539062 21.246094 C 1.238281 21.296875 0.964844 21.332031 0.710938 21.351562 C 0.640625 21.359375 0.570312 21.363281 0.503906 21.367188 C 0.523438 20.738281 0.53125 20.125 0.523438 19.53125 L 0.527344 19.53125 C 0.527344 19.53125 28.101562 3.398438 42.316406 0.898438 C 42.613281 1.542969 42.859375 2.1875 43.054688 2.835938 C 43.136719 3.09375 41.9375 3.992188 40.988281 4.761719 Z M 40.988281 4.761719 " fill-opacity="1" fill-rule="nonzero"/></g></g></g></g><g clip-path="url(#1ca20da103)"><path fill="#7c00ff" d="M 316.648438 135.914062 C 316.339844 135.886719 316.027344 135.855469 315.71875 135.828125 C 282.59375 132.761719 261.378906 138.726562 245.464844 143.902344 C 244.574219 144.191406 243.703125 144.476562 242.84375 144.757812 C 242.125 144.929688 210.523438 159.730469 209.503906 160.367188 C 83.964844 239.289062 63.851562 296.027344 87.453125 311.359375 C 89.722656 312.832031 92.390625 313.921875 95.414062 314.613281 C 125.261719 321.449219 190.496094 285.941406 235.953125 197.476562 C 242.199219 185.328125 248.070312 172.171875 253.425781 157.996094 C 253.441406 157.960938 253.453125 157.925781 253.464844 157.898438 C 253.480469 157.855469 253.492188 157.816406 253.507812 157.78125 C 253.511719 157.761719 253.519531 157.746094 253.527344 157.730469 C 253.539062 157.695312 253.550781 157.664062 253.5625 157.636719 C 253.621094 157.484375 253.652344 157.40625 253.652344 157.40625 C 269.382812 147.5 296.941406 139.085938 321.675781 136.460938 C 319.972656 136.257812 318.292969 136.074219 316.648438 135.914062 Z M 199.574219 192.996094 C 198.179688 196.234375 196.21875 199.832031 193.796875 203.6875 C 193.796875 203.6875 193.792969 203.691406 193.792969 203.691406 C 180.707031 224.527344 154.210938 252.824219 131.597656 271.757812 C 122.925781 279.019531 114.820312 284.902344 108.269531 288.457031 C 108.082031 288.558594 107.898438 288.660156 107.714844 288.757812 C 107.714844 254.808594 175.71875 196.828125 199.574219 192.996094 Z M 199.574219 192.996094 " fill-opacity="1" fill-rule="nonzero"/></g><g mask="url(#78acd7bf0c)"><g transform="matrix(1, 0, 0, 1, 99, 160)"><g clip-path="url(#e65268e5d2)"><g clip-path="url(#716cab4efa)"><path fill="#ebdcff" d="M 142.726562 1.1875 C 128.691406 44.359375 90.820312 93.777344 56.441406 123.25 C 46.167969 131.917969 31.214844 143.273438 17.941406 145.894531 C 13.304688 146.808594 7.960938 146.414062 4.585938 142.722656 C 2.1875 140.121094 1.207031 136.601562 0.820312 133.175781 C 1.074219 134.289062 1.375 135.386719 1.753906 136.449219 C 3.824219 142.308594 8.023438 145.28125 14.300781 144.585938 C 30.199219 142.664062 52.285156 122.246094 63.773438 111.046875 C 79.890625 95.144531 94.558594 77.796875 107.972656 59.566406 C 121.324219 41.25 133.601562 21.988281 142.726562 1.1875 Z M 142.726562 1.1875 " fill-opacity="1" fill-rule="nonzero"/></g></g></g></g><path fill="#ebdcff" d="M 105.695312 303.132812 C 114.355469 308.398438 129.839844 298.058594 136.992188 292.894531 C 152.40625 281.429688 165.980469 267.675781 178.847656 253.457031 C 197.378906 232.679688 214.308594 210.371094 228.671875 186.5 C 229.964844 184.304688 231.753906 181.242188 232.996094 179.007812 C 231.785156 181.296875 230.132812 184.359375 228.847656 186.605469 C 218.835938 204.160156 207.136719 220.722656 194.53125 236.503906 C 185.496094 247.75 175.882812 258.59375 165.699219 268.804688 C 153.519531 280.835938 133.390625 299.621094 116.910156 303.996094 C 113.191406 304.984375 109.078125 305.296875 105.699219 303.128906 Z M 105.695312 303.132812 " fill-opacity="1" fill-rule="nonzero"/><g clip-path="url(#51fad88475)"><path fill="#340087" d="M 315.347656 136.109375 C 315.027344 136.109375 314.710938 136.113281 314.390625 136.117188 C 314.347656 136.117188 314.304688 136.121094 314.257812 136.121094 C 314.042969 136.121094 313.828125 136.128906 313.609375 136.132812 C 313.460938 136.136719 313.308594 136.140625 313.160156 136.148438 C 313.050781 136.148438 312.945312 136.152344 312.832031 136.160156 C 312.542969 136.167969 312.25 136.183594 311.953125 136.199219 C 311.75 136.207031 311.542969 136.21875 311.332031 136.230469 C 311.058594 136.246094 310.78125 136.261719 310.5 136.285156 C 310.371094 136.292969 310.242188 136.300781 310.113281 136.3125 C 309.914062 136.324219 309.710938 136.339844 309.511719 136.355469 C 309.375 136.367188 309.238281 136.378906 309.101562 136.390625 C 308.734375 136.421875 308.367188 136.457031 307.996094 136.496094 C 307.730469 136.519531 307.46875 136.546875 307.203125 136.574219 C 306.957031 136.601562 306.707031 136.628906 306.457031 136.660156 C 306.242188 136.683594 306.027344 136.710938 305.8125 136.738281 C 305.742188 136.746094 305.671875 136.753906 305.597656 136.761719 C 305.015625 136.835938 304.425781 136.914062 303.832031 137.003906 C 303.789062 137.007812 303.742188 137.015625 303.695312 137.019531 C 303.363281 137.066406 303.03125 137.117188 302.699219 137.171875 C 302.011719 137.277344 301.320312 137.390625 300.625 137.511719 C 300.445312 137.542969 300.265625 137.574219 300.085938 137.605469 C 299.796875 137.660156 299.507812 137.710938 299.21875 137.765625 C 298.882812 137.828125 298.542969 137.894531 298.203125 137.960938 C 297.851562 138.03125 297.5 138.097656 297.144531 138.171875 C 296.859375 138.230469 296.574219 138.289062 296.285156 138.351562 C 296.0625 138.398438 295.835938 138.445312 295.609375 138.496094 C 295.261719 138.570312 294.914062 138.648438 294.566406 138.726562 C 294.476562 138.746094 294.382812 138.765625 294.289062 138.789062 C 293.722656 138.914062 293.160156 139.046875 292.589844 139.183594 C 292.28125 139.257812 291.972656 139.332031 291.664062 139.410156 C 290.691406 139.648438 289.707031 139.902344 288.714844 140.164062 C 288.449219 140.234375 288.175781 140.308594 287.90625 140.382812 C 287.589844 140.46875 287.273438 140.554688 286.957031 140.644531 C 286.320312 140.820312 285.679688 141.003906 285.035156 141.1875 C 284.773438 141.265625 284.507812 141.34375 284.246094 141.421875 C 283.542969 141.628906 282.839844 141.839844 282.128906 142.058594 C 281.800781 142.160156 281.476562 142.257812 281.148438 142.363281 C 280.820312 142.464844 280.492188 142.566406 280.164062 142.671875 C 277.492188 143.523438 274.773438 144.449219 272.011719 145.449219 C 271.71875 145.554688 271.425781 145.660156 271.136719 145.765625 C 270.457031 146.015625 269.773438 146.265625 269.089844 146.527344 C 268.746094 146.652344 268.402344 146.78125 268.058594 146.914062 C 267.75 147.03125 267.449219 147.148438 267.140625 147.265625 C 266.414062 147.542969 265.6875 147.828125 264.953125 148.117188 C 264.667969 148.226562 264.386719 148.339844 264.101562 148.453125 C 263.835938 148.558594 263.574219 148.664062 263.308594 148.773438 C 262.988281 148.898438 262.667969 149.027344 262.347656 149.160156 C 261.464844 149.515625 260.578125 149.878906 259.691406 150.25 C 259.347656 150.394531 259.007812 150.539062 258.667969 150.679688 C 258.3125 150.832031 257.960938 150.976562 257.609375 151.128906 C 256.90625 151.429688 256.199219 151.730469 255.488281 152.039062 C 255.242188 152.148438 255 152.253906 254.753906 152.359375 C 254.445312 152.496094 254.140625 152.628906 253.832031 152.765625 C 253.367188 152.972656 252.898438 153.179688 252.433594 153.386719 C 251.03125 154.011719 249.621094 154.652344 248.210938 155.304688 C 247.78125 155.503906 247.347656 155.703125 246.917969 155.90625 C 246.554688 156.074219 246.199219 156.246094 245.835938 156.414062 C 245.476562 156.582031 245.117188 156.753906 244.757812 156.925781 C 243.980469 157.292969 243.203125 157.667969 242.421875 158.042969 C 241.988281 158.253906 241.554688 158.464844 241.121094 158.675781 C 240.648438 158.910156 240.171875 159.140625 239.695312 159.375 C 238.730469 159.855469 237.765625 160.335938 236.796875 160.820312 C 236.335938 161.054688 235.875 161.289062 235.414062 161.523438 C 235.039062 161.714844 234.660156 161.90625 234.289062 162.097656 C 233.207031 162.652344 232.125 163.214844 231.046875 163.777344 C 230.609375 164.007812 230.167969 164.238281 229.730469 164.472656 C 227.699219 165.542969 225.664062 166.640625 223.632812 167.757812 C 223.257812 167.960938 222.882812 168.167969 222.507812 168.375 C 221.921875 168.699219 221.339844 169.023438 220.753906 169.351562 C 220.023438 169.757812 219.296875 170.167969 218.566406 170.578125 C 217.96875 170.917969 217.371094 171.257812 216.773438 171.601562 C 216.296875 171.871094 215.824219 172.144531 215.347656 172.417969 C 214.871094 172.695312 214.390625 172.972656 213.910156 173.25 C 213.4375 173.527344 212.957031 173.804688 212.480469 174.085938 C 212.007812 174.363281 211.53125 174.644531 211.058594 174.925781 C 210.582031 175.207031 210.105469 175.488281 209.632812 175.769531 C 209.34375 175.945312 209.050781 176.117188 208.761719 176.289062 C 208.457031 176.472656 208.15625 176.652344 207.851562 176.835938 C 207.433594 177.089844 207.011719 177.34375 206.59375 177.597656 C 205.710938 178.132812 204.832031 178.667969 203.953125 179.210938 C 202.53125 180.082031 201.109375 180.96875 199.699219 181.859375 C 199.238281 182.148438 198.777344 182.4375 198.320312 182.730469 C 197.746094 183.09375 197.171875 183.460938 196.597656 183.828125 C 196.242188 184.058594 195.878906 184.289062 195.523438 184.519531 C 195.226562 184.710938 194.929688 184.902344 194.632812 185.09375 C 194.328125 185.289062 194.027344 185.484375 193.726562 185.683594 C 191.082031 187.40625 188.457031 189.148438 185.863281 190.914062 C 185.421875 191.214844 184.984375 191.515625 184.542969 191.816406 C 183.625 192.445312 182.710938 193.078125 181.796875 193.714844 C 181.347656 194.027344 180.898438 194.339844 180.453125 194.652344 C 180.019531 194.957031 179.585938 195.261719 179.15625 195.566406 C 179.140625 195.574219 179.128906 195.585938 179.113281 195.59375 C 178.222656 196.222656 177.335938 196.855469 176.453125 197.488281 C 175.667969 198.050781 174.886719 198.617188 174.109375 199.183594 C 174.011719 199.253906 173.917969 199.324219 173.820312 199.394531 C 173.382812 199.710938 172.949219 200.03125 172.515625 200.347656 C 172.082031 200.667969 171.652344 200.984375 171.21875 201.300781 C 170.785156 201.625 170.355469 201.945312 169.921875 202.269531 C 169.0625 202.910156 168.207031 203.554688 167.359375 204.195312 C 166.984375 204.480469 166.609375 204.765625 166.238281 205.050781 C 166.1875 205.089844 166.140625 205.125 166.089844 205.164062 C 165.667969 205.488281 165.246094 205.808594 164.828125 206.132812 C 164.410156 206.457031 163.992188 206.777344 163.574219 207.101562 C 163.183594 207.40625 162.792969 207.707031 162.40625 208.011719 C 162.378906 208.035156 162.355469 208.054688 162.328125 208.074219 C 161.914062 208.398438 161.5 208.722656 161.089844 209.046875 C 160.679688 209.375 160.269531 209.699219 159.859375 210.023438 C 159.453125 210.347656 159.046875 210.671875 158.640625 211 C 157.832031 211.652344 157.027344 212.300781 156.226562 212.957031 C 155.511719 213.542969 154.796875 214.128906 154.089844 214.71875 C 154.007812 214.785156 153.929688 214.847656 153.851562 214.914062 C 153.460938 215.242188 153.066406 215.566406 152.679688 215.894531 C 152.289062 216.222656 151.902344 216.550781 151.515625 216.875 C 151.128906 217.203125 150.742188 217.53125 150.363281 217.859375 C 149.980469 218.183594 149.597656 218.511719 149.21875 218.839844 C 148.839844 219.164062 148.460938 219.496094 148.085938 219.820312 C 117.703125 246.273438 98.878906 272.757812 107.714844 288.757812 C 107.757812 288.636719 107.800781 288.515625 107.847656 288.394531 C 119.117188 257.746094 152.179688 228.054688 181.480469 206.042969 C 187.683594 201.382812 193.71875 197.066406 199.34375 193.15625 C 199.398438 193.117188 199.453125 193.082031 199.503906 193.046875 C 199.527344 193.027344 199.550781 193.011719 199.574219 192.996094 C 215.175781 180.992188 228.277344 172.300781 237.679688 166.515625 C 242.308594 163.664062 246.042969 161.515625 248.730469 160.027344 C 251.929688 158.25 253.652344 157.40625 253.652344 157.40625 C 269.382812 147.5 296.941406 139.085938 321.675781 136.460938 C 319.667969 136.226562 317.554688 136.109375 315.34375 136.109375 Z M 315.347656 136.109375 " fill-opacity="1" fill-rule="nonzero"/></g><path fill="#9f55ff" d="M 217.15625 180.058594 C 217.15625 181.507812 216.289062 183.917969 214.703125 187.074219 C 199.414062 217.503906 117.523438 317.085938 107.714844 288.757812 C 107.898438 288.660156 108.082031 288.558594 108.269531 288.457031 C 114.820312 284.902344 122.925781 279.019531 131.597656 271.757812 C 154.210938 252.824219 180.707031 224.527344 193.792969 203.691406 L 193.796875 203.6875 C 196.21875 199.832031 198.179688 196.234375 199.574219 192.996094 C 205.855469 188.164062 211.730469 183.867188 217.121094 180.082031 C 217.132812 180.074219 217.144531 180.066406 217.15625 180.058594 Z M 217.15625 180.058594 " fill-opacity="1" fill-rule="nonzero"/><g mask="url(#0c104ecce7)"><g transform="matrix(1, 0, 0, 1, 193, 157)"><g clip-path="url(#83eeee1428)"><g clip-path="url(#f46ea89f25)"><path fill="#340087" d="M 60.652344 0.40625 C 60.621094 0.484375 60.59375 0.558594 60.566406 0.636719 C 60.554688 0.664062 60.542969 0.695312 60.53125 0.730469 C 60.523438 0.746094 60.515625 0.765625 60.507812 0.78125 C 60.496094 0.816406 60.480469 0.855469 60.464844 0.898438 C 60.460938 0.914062 60.457031 0.929688 60.449219 0.945312 C 60.441406 0.960938 60.433594 0.976562 60.429688 0.996094 C 60.414062 1.027344 60.402344 1.058594 60.386719 1.097656 C 60.363281 1.164062 60.332031 1.238281 60.300781 1.316406 C 60.253906 1.4375 60.203125 1.566406 60.148438 1.710938 C 60.113281 1.792969 60.078125 1.882812 60.042969 1.976562 C 60.023438 2.027344 60 2.078125 59.980469 2.132812 C 59.957031 2.1875 59.9375 2.242188 59.914062 2.296875 C 59.46875 3.410156 58.8125 5.023438 57.910156 7.15625 C 57.828125 7.351562 57.742188 7.554688 57.65625 7.757812 C 57.5625 7.988281 57.460938 8.222656 57.359375 8.464844 C 55.539062 9.34375 53.738281 10.253906 51.964844 11.183594 C 46.578125 14.003906 41.410156 17.019531 36.5625 20.058594 C 31.152344 23.449219 26.148438 26.867188 21.703125 30.074219 C 9.132812 39.132812 1.019531 46.488281 0.796875 46.6875 C 3.21875 42.832031 5.179688 39.234375 6.574219 35.996094 C 12.855469 31.164062 18.730469 26.867188 24.121094 23.082031 C 24.132812 23.074219 24.144531 23.066406 24.15625 23.058594 C 32.144531 17.453125 39.070312 12.96875 44.679688 9.515625 C 49.308594 6.664062 53.042969 4.515625 55.730469 3.027344 C 58.929688 1.25 60.652344 0.40625 60.652344 0.40625 Z M 60.652344 0.40625 " fill-opacity="1" fill-rule="nonzero"/></g></g></g></g><path fill="#9f55ff" d="M 315.71875 135.828125 C 315.71875 135.828125 315.726562 135.839844 315.734375 135.84375 C 215.988281 132.246094 108.738281 234.019531 84.078125 284.25 C 80.078125 295.5 78.441406 305.105469 87.53125 311.308594 L 87.453125 311.359375 C 63.851562 296.027344 83.964844 239.289062 209.503906 160.367188 C 210.523438 159.730469 242.125 144.929688 242.84375 144.757812 C 243.703125 144.476562 244.574219 144.191406 245.464844 143.902344 C 261.378906 138.726562 282.59375 132.761719 315.71875 135.828125 Z M 315.71875 135.828125 " fill-opacity="1" fill-rule="nonzero"/><path fill="#ebdcff" d="M 316.648438 135.914062 C 316.347656 135.886719 315.933594 136.0625 315.734375 135.84375 C 316.039062 135.863281 316.34375 135.890625 316.648438 135.914062 Z M 316.648438 135.914062 " fill-opacity="1" fill-rule="nonzero"/><g clip-path="url(#6c8d82a530)"><path fill="#340087" d="M 100.972656 147.242188 C 75.050781 170.410156 56.085938 157.40625 53.617188 135.214844 C 52.933594 129.058594 53.660156 122.828125 55.574219 116.9375 C 58.792969 107.039062 64.585938 96.292969 72.253906 85.507812 C 27.230469 160.367188 100.976562 147.246094 100.976562 147.246094 Z M 100.972656 147.242188 " fill-opacity="1" fill-rule="nonzero"/></g><g clip-path="url(#57af10b053)"><path fill="#340087" d="M 253.773438 157.195312 C 253.746094 157.273438 253.59375 157.558594 253.566406 157.636719 C 253.554688 157.667969 253.542969 157.699219 253.53125 157.730469 C 253.523438 157.746094 253.515625 157.765625 253.507812 157.78125 C 253.496094 157.820312 253.480469 157.859375 253.464844 157.898438 C 253.460938 157.914062 253.457031 157.929688 253.449219 157.945312 C 209.113281 275.367188 129.371094 322.390625 95.414062 314.613281 C 96.121094 314.476562 173.074219 320.917969 244.964844 168.183594 C 246.222656 165.511719 247.480469 162.792969 248.734375 160.027344 C 251.933594 158.125 253.773438 157.195312 253.773438 157.195312 Z M 253.773438 157.195312 " fill-opacity="1" fill-rule="nonzero"/></g><g clip-path="url(#2d3286b1bc)"><path fill="#9f55ff" d="M 244.660156 79.667969 C 242.507812 83.0625 240.070312 86.378906 237.449219 89.601562 C 228.015625 101.191406 216.1875 111.542969 206.671875 119.574219 C 301.15625 28.148438 228.816406 -27.417969 125.160156 33.625 C 126.464844 32.6875 127.777344 31.765625 129.089844 30.855469 L 129.09375 30.855469 C 141.941406 21.539062 155.144531 14.785156 167.949219 10.367188 C 228.292969 -10.449219 279.867188 20.578125 244.660156 79.667969 Z M 244.660156 79.667969 " fill-opacity="1" fill-rule="nonzero"/></g><path fill="#340087" d="M 141.761719 146.179688 C 149.476562 137.882812 159.1875 128.609375 169.3125 118.699219 C 172.507812 115.570312 175.75 112.375 178.976562 109.128906 C 180.050781 108.046875 181.125 106.960938 182.195312 105.867188 L 182.199219 105.867188 C 183.269531 104.773438 184.339844 103.675781 185.402344 102.574219 C 187 100.917969 188.582031 99.25 190.152344 97.574219 C 193.261719 94.25 196.300781 90.886719 199.230469 87.496094 C 199.238281 87.488281 199.246094 87.480469 199.25 87.46875 C 205.859375 79.804688 211.878906 71.992188 216.746094 64.15625 C 216.757812 64.132812 216.773438 64.109375 216.785156 64.089844 C 220.703125 57.9375 223.925781 51.804688 225.53125 46.460938 C 225.53125 46.457031 225.53125 46.457031 225.53125 46.453125 C 225.546875 46.414062 225.5625 46.375 225.574219 46.335938 C 225.601562 46.242188 225.625 46.152344 225.648438 46.0625 C 225.652344 46.039062 225.660156 46.011719 225.667969 45.984375 C 225.671875 45.972656 225.675781 45.960938 225.675781 45.949219 C 225.6875 45.917969 225.695312 45.882812 225.703125 45.851562 C 225.738281 45.710938 225.773438 45.570312 225.808594 45.429688 C 225.84375 45.28125 225.878906 45.132812 225.910156 44.988281 C 225.941406 44.847656 225.972656 44.710938 226.003906 44.578125 C 226.035156 44.414062 226.070312 44.25 226.101562 44.089844 C 226.125 43.972656 226.144531 43.855469 226.167969 43.738281 C 226.171875 43.722656 226.175781 43.703125 226.175781 43.6875 C 226.195312 43.585938 226.214844 43.484375 226.230469 43.386719 C 226.242188 43.3125 226.253906 43.234375 226.265625 43.160156 C 226.285156 43.03125 226.308594 42.902344 226.328125 42.773438 C 226.347656 42.644531 226.363281 42.515625 226.378906 42.390625 C 226.425781 42.035156 226.460938 41.679688 226.488281 41.339844 C 226.496094 41.203125 226.507812 41.066406 226.515625 40.929688 C 226.632812 38.9375 226.417969 37.253906 225.917969 35.84375 C 225.527344 34.742188 224.964844 33.808594 224.25 33.027344 C 224.191406 32.960938 224.132812 32.902344 224.078125 32.84375 C 224.019531 32.78125 223.960938 32.722656 223.898438 32.664062 C 221.730469 30.578125 218.359375 29.703125 214.28125 29.703125 C 214.074219 29.703125 213.859375 29.703125 213.648438 29.710938 C 213.585938 29.710938 213.523438 29.710938 213.460938 29.714844 C 213.285156 29.71875 213.109375 29.722656 212.929688 29.734375 C 212.914062 29.734375 212.90625 29.734375 212.894531 29.738281 C 212.667969 29.746094 212.441406 29.757812 212.214844 29.773438 C 211.988281 29.785156 211.761719 29.804688 211.53125 29.824219 C 211.515625 29.824219 211.496094 29.824219 211.480469 29.828125 C 211.246094 29.847656 211.015625 29.867188 210.78125 29.894531 C 210.554688 29.914062 210.328125 29.941406 210.101562 29.96875 C 209.902344 29.992188 209.699219 30.015625 209.496094 30.046875 C 209.367188 30.0625 209.242188 30.078125 209.113281 30.097656 C 208.796875 30.140625 208.476562 30.191406 208.15625 30.242188 C 207.933594 30.277344 207.710938 30.3125 207.488281 30.355469 C 206.558594 30.511719 205.609375 30.703125 204.652344 30.917969 C 204.433594 30.964844 204.210938 31.015625 203.992188 31.066406 C 203.816406 31.105469 203.640625 31.148438 203.460938 31.191406 C 203.300781 31.230469 203.136719 31.269531 202.976562 31.3125 C 202.894531 31.328125 202.816406 31.347656 202.734375 31.371094 C 202.636719 31.398438 202.535156 31.421875 202.433594 31.445312 C 202.375 31.460938 202.3125 31.476562 202.253906 31.492188 C 200.929688 31.835938 199.582031 32.21875 198.226562 32.636719 C 193.304688 34.15625 188.253906 36.136719 183.527344 38.265625 C 183.027344 38.488281 182.535156 38.714844 182.042969 38.941406 C 182.035156 38.945312 182.027344 38.949219 182.015625 38.957031 C 177.296875 41.140625 172.960938 43.441406 169.492188 45.535156 C 169.167969 45.730469 168.851562 45.925781 168.550781 46.113281 C 166.769531 47.226562 165.386719 48.203125 164.21875 49.070312 C 164.03125 49.210938 163.847656 49.347656 163.671875 49.480469 C 163.664062 49.492188 163.65625 49.496094 163.648438 49.5 C 163.5625 49.570312 163.480469 49.640625 163.398438 49.707031 C 159.296875 48.996094 147.632812 52.460938 143.15625 61.78125 C 140.074219 64.601562 135.863281 67.121094 132.738281 70.167969 C 118.503906 83.070312 97.070312 106.519531 88.691406 124.179688 C 82.636719 136.941406 83.402344 146.679688 98.628906 147.226562 C 99.375 147.257812 100.15625 147.261719 100.972656 147.242188 C 100.972656 147.242188 77.566406 151.046875 80.9375 130.574219 C 81.382812 127.867188 82.242188 125.246094 83.40625 122.761719 C 93.722656 100.828125 117.929688 74.140625 137.773438 59.6875 C 160.890625 42.011719 187.503906 28.535156 208.621094 25.320312 C 250.394531 18.964844 241.136719 85.046875 141.761719 146.179688 Z M 141.761719 146.179688 " fill-opacity="1" fill-rule="nonzero"/><path fill="#9f55ff" d="M 174.617188 71.464844 C 163.617188 95.785156 151.859375 122.179688 141.765625 146.167969 C 142.023438 145.34375 161.269531 93.289062 167.542969 75.089844 C 173.867188 56.75 163.398438 49.707031 163.398438 49.707031 C 173.117188 51.414062 178.84375 62.285156 174.617188 71.464844 Z M 174.617188 71.464844 " fill-opacity="1" fill-rule="nonzero"/><path fill="#340087" d="M 100.972656 147.242188 C 100.824219 147.378906 100.675781 147.511719 100.527344 147.648438 C 100.601562 147.511719 100.679688 147.378906 100.757812 147.246094 C 100.828125 147.246094 100.902344 147.246094 100.972656 147.242188 Z M 100.972656 147.242188 " fill-opacity="1" fill-rule="nonzero"/><path fill="#340087" d="M 190.648438 143.160156 C 164.730469 154.1875 121.167969 200.640625 114.808594 210.730469 C 108.542969 220.234375 97.675781 217.207031 91.558594 210.539062 C 91.542969 210.523438 91.527344 210.507812 91.515625 210.492188 C 91.441406 210.410156 91.367188 210.328125 91.292969 210.246094 C 90.972656 209.882812 90.667969 209.511719 90.378906 209.128906 C 90.339844 209.082031 90.300781 209.03125 90.261719 208.980469 C 90.039062 208.683594 89.828125 208.378906 89.625 208.070312 C 89.625 208.070312 89.621094 208.070312 89.621094 208.066406 C 88.757812 206.71875 88.242188 205.257812 88.066406 203.6875 C 87.859375 201.820312 88.144531 199.792969 88.914062 197.605469 C 102.71875 155.273438 124.582031 102.339844 143.117188 61.902344 L 93.210938 201.527344 C 91.964844 205.003906 94.074219 208.84375 97.703125 209.527344 C 99.8125 209.925781 101.835938 209.546875 103.058594 209.011719 C 105.394531 208 107.414062 206.378906 109.007812 204.390625 C 116.175781 195.441406 152.097656 152.628906 190.644531 143.160156 Z M 190.648438 143.160156 " fill-opacity="1" fill-rule="nonzero"/><g mask="url(#162f7b7f99)"><g transform="matrix(1, 0, 0, 1, 67, 13)"><g clip-path="url(#50fbf94dce)"><g clip-path="url(#d2c95b32bb)"><path fill="#ebdcff" d="M 33.527344 134.648438 C 23.714844 134.851562 11.988281 133.636719 5.285156 125.617188 C -8.203125 108.570312 12.65625 78.324219 24.179688 64.804688 C 45.304688 40.203125 71.96875 19.832031 102.292969 7.972656 C 111.917969 4.363281 122.003906 1.722656 132.308594 1.042969 C 141.628906 0.476562 151.285156 0.675781 160.199219 3.910156 C 171.792969 8.132812 177.824219 17.398438 177.160156 29.703125 C 175.257812 59.8125 141.324219 98.207031 117.160156 114.679688 C 120.269531 112.148438 123.285156 109.511719 126.175781 106.75 C 140.507812 92.976562 153.074219 77.207031 162.566406 59.734375 C 168.699219 48.09375 176.972656 28.886719 168.957031 16.726562 C 161.652344 6.179688 144.316406 6.074219 132.722656 6.867188 C 94.222656 10.210938 53.054688 39.746094 27.734375 67.878906 C 6.636719 91.285156 -16.414062 131.988281 33.527344 134.648438 Z M 33.527344 134.648438 " fill-opacity="1" fill-rule="nonzero"/></g></g></g></g><g mask="url(#7640394fd8)"><g transform="matrix(1, 0, 0, 1, 100, 140)"><g clip-path="url(#2d4b0c9577)"><g clip-path="url(#9f3b6e74de)"><path fill="#ebdcff" d="M 182.609375 0.878906 C 134.242188 11.507812 77.332031 48.535156 40.925781 81.851562 C 38.265625 84.316406 35.578125 86.878906 33.011719 89.453125 C 21.953125 100.695312 11.273438 112.808594 4.523438 127.191406 C 3.9375 128.425781 3.582031 129.371094 3.097656 130.558594 C 2.226562 132.839844 1.503906 135.179688 0.972656 137.574219 C 1.449219 134.417969 2.363281 131.246094 3.460938 128.242188 C 4.945312 124.363281 6.757812 120.605469 8.851562 117.019531 C 37.710938 67.671875 126.007812 9.105469 182.609375 0.875 Z M 182.609375 0.878906 " fill-opacity="1" fill-rule="nonzero"/></g></g></g></g><g mask="url(#1b25428d37)"><g transform="matrix(1, 0, 0, 1, 115, 57)"><g clip-path="url(#3805f59d71)"><g clip-path="url(#297ac63c6f)"><path fill="#ebdcff" d="M 47.660156 6.382812 C 47.660156 6.382812 0.679688 116.105469 0.679688 116.105469 L 40.425781 3.5625 C 41.140625 1.539062 43.359375 0.476562 45.378906 1.191406 C 47.492188 1.929688 48.542969 4.332031 47.660156 6.382812 Z M 47.660156 6.382812 " fill-opacity="1" fill-rule="nonzero"/></g></g></g></g><path fill="#ebdcff" d="M 192.382812 8.722656 C 201.285156 7.601562 210.378906 7.496094 219.21875 9.25 C 245.914062 14.523438 256.230469 34.867188 248.101562 60.226562 C 247.078125 63.441406 245.859375 66.582031 244.460938 69.644531 C 244.003906 70.667969 243.5 71.667969 243.011719 72.675781 C 243.914062 70.625 244.765625 68.558594 245.554688 66.460938 C 247.859375 60.1875 249.566406 53.636719 249.914062 46.949219 C 251.074219 26.539062 238.207031 14.0625 219.0625 10.007812 C 210.324219 8.128906 201.269531 7.996094 192.382812 8.722656 Z M 192.382812 8.722656 " fill-opacity="1" fill-rule="nonzero"/><path fill="#ebdcff" d="M 110.472656 57.96875 C 95.097656 73.328125 60.730469 110.394531 69.386719 133.421875 C 70.089844 135.257812 71.109375 137.039062 72.285156 138.617188 C 71.007812 137.085938 69.921875 135.347656 69.140625 133.519531 C 59.457031 109.960938 93.960938 72.734375 110.472656 57.96875 Z M 110.472656 57.96875 " fill-opacity="1" fill-rule="nonzero"/><path fill="#ebdcff" d="M 155.421875 60.5625 C 143.285156 96.941406 130.308594 133.648438 116.988281 169.613281 C 116.988281 169.613281 115.675781 173.105469 115.675781 173.105469 C 115.675781 173.105469 116.847656 169.5625 116.847656 169.5625 C 129.070312 133.210938 142.019531 96.492188 155.421875 60.5625 Z M 155.421875 60.5625 " fill-opacity="1" fill-rule="nonzero"/><path fill="#ebdcff" d="M 100.972656 277.574219 C 110.308594 236.789062 166.015625 194 200.890625 173.402344 C 226.21875 158.59375 253.378906 145.4375 282.609375 140.878906 C 272.894531 142.371094 263.402344 145.0625 254.15625 148.34375 C 203.964844 166.433594 138.71875 209.941406 110.308594 255.648438 C 106.191406 262.460938 102.769531 269.792969 100.976562 277.574219 Z M 100.972656 277.574219 " fill-opacity="1" fill-rule="nonzero"/><g mask="url(#274575f129)"><g transform="matrix(1, 0, 0, 1, 123, 130)"><g clip-path="url(#5d3fb00a7c)"><g clip-path="url(#f89debf46d)"><path fill="#ebdcff" d="M 109.070312 13.070312 C 105.636719 9.195312 101.054688 6.4375 96.257812 4.59375 C 90.246094 2.324219 83.71875 1.632812 77.335938 2.105469 C 66.070312 2.9375 55.300781 7.046875 45.316406 12.15625 C 38.195312 15.851562 31.234375 20.277344 24.675781 24.902344 C 16.207031 30.90625 8.148438 37.5 0.222656 44.269531 C 8.484375 35.972656 17.394531 28.195312 26.914062 21.316406 C 42.363281 10.335938 61.285156 0.152344 80.707031 0.398438 C 84.832031 0.488281 88.96875 1.078125 92.910156 2.320312 C 99.125 4.300781 105.101562 7.820312 109.074219 13.066406 Z M 109.070312 13.070312 " fill-opacity="1" fill-rule="nonzero"/></g></g></g></g><path fill="#ebdcff" d="M 134.953125 163.257812 C 152.757812 147.300781 177.277344 130.597656 201.945312 130.238281 C 204.769531 130.203125 207.597656 130.433594 210.378906 130.929688 C 212.234375 131.257812 214.0625 131.710938 215.84375 132.300781 C 212.238281 131.25 208.503906 130.691406 204.757812 130.582031 C 179.128906 130.054688 153.882812 147.355469 134.953125 163.253906 Z M 134.953125 163.257812 " fill-opacity="1" fill-rule="nonzero"/><g fill="#340087" fill-opacity="1"><g transform="translate(99.916316, 368.301768)"><g><path d="M 29.578125 0 L 3.984375 0 L 3.984375 -35.671875 L 30.125 -35.671875 C 34.757812 -35.671875 38.578125 -35.457031 41.578125 -35.03125 C 44.585938 -34.601562 46.90625 -33.9375 48.53125 -33.03125 C 50.15625 -32.132812 51.253906 -30.988281 51.828125 -29.59375 C 52.410156 -28.207031 52.703125 -26.539062 52.703125 -24.59375 C 52.648438 -23.070312 52.226562 -21.804688 51.4375 -20.796875 C 50.65625 -19.796875 49.738281 -19.050781 48.6875 -18.5625 C 47.632812 -18.070312 46.707031 -17.828125 45.90625 -17.828125 C 46.6875 -17.828125 47.597656 -17.671875 48.640625 -17.359375 C 49.691406 -17.054688 50.707031 -16.613281 51.6875 -16.03125 C 52.675781 -15.457031 53.5 -14.753906 54.15625 -13.921875 C 54.8125 -13.097656 55.140625 -12.15625 55.140625 -11.09375 C 55.140625 -9.695312 54.976562 -8.414062 54.65625 -7.25 C 54.332031 -6.09375 53.6875 -5.066406 52.71875 -4.171875 C 51.75 -3.273438 50.316406 -2.515625 48.421875 -1.890625 C 46.535156 -1.273438 44.0625 -0.804688 41 -0.484375 C 37.9375 -0.160156 34.128906 0 29.578125 0 Z M 28.734375 -20.890625 C 30.921875 -20.890625 32.613281 -20.992188 33.8125 -21.203125 C 35.007812 -21.421875 35.84375 -21.75 36.3125 -22.1875 C 36.78125 -22.632812 37.015625 -23.195312 37.015625 -23.875 C 37.015625 -24.570312 36.78125 -25.140625 36.3125 -25.578125 C 35.84375 -26.015625 35.007812 -26.335938 33.8125 -26.546875 C 32.613281 -26.753906 30.921875 -26.859375 28.734375 -26.859375 L 18.953125 -26.859375 L 18.953125 -20.890625 Z M 28.734375 -8.796875 C 30.960938 -8.796875 32.773438 -8.851562 34.171875 -8.96875 C 35.566406 -9.09375 36.585938 -9.359375 37.234375 -9.765625 C 37.878906 -10.179688 38.203125 -10.859375 38.203125 -11.796875 C 38.203125 -12.722656 37.878906 -13.394531 37.234375 -13.8125 C 36.585938 -14.238281 35.566406 -14.503906 34.171875 -14.609375 C 32.773438 -14.722656 30.960938 -14.78125 28.734375 -14.78125 L 18.953125 -14.78125 L 18.953125 -8.796875 Z M 28.734375 -8.796875 "/></g></g></g><g fill="#340087" fill-opacity="1"><g transform="translate(157.032553, 368.301768)"><g><path d="M 56.9375 0 L 39.125 0 L 18.953125 -24.15625 L 18.953125 0 L 3.984375 0 L 3.984375 -35.6875 L 21.78125 -35.6875 L 41.953125 -11.671875 L 41.953125 -35.6875 L 56.9375 -35.6875 Z M 56.9375 0 "/></g></g></g><g fill="#340087" fill-opacity="1"><g transform="translate(217.928357, 368.301768)"><g><path d="M 29.578125 0 L 3.984375 0 L 3.984375 -35.671875 L 30.125 -35.671875 C 34.757812 -35.671875 38.578125 -35.457031 41.578125 -35.03125 C 44.585938 -34.601562 46.90625 -33.9375 48.53125 -33.03125 C 50.15625 -32.132812 51.253906 -30.988281 51.828125 -29.59375 C 52.410156 -28.207031 52.703125 -26.539062 52.703125 -24.59375 C 52.648438 -23.070312 52.226562 -21.804688 51.4375 -20.796875 C 50.65625 -19.796875 49.738281 -19.050781 48.6875 -18.5625 C 47.632812 -18.070312 46.707031 -17.828125 45.90625 -17.828125 C 46.6875 -17.828125 47.597656 -17.671875 48.640625 -17.359375 C 49.691406 -17.054688 50.707031 -16.613281 51.6875 -16.03125 C 52.675781 -15.457031 53.5 -14.753906 54.15625 -13.921875 C 54.8125 -13.097656 55.140625 -12.15625 55.140625 -11.09375 C 55.140625 -9.695312 54.976562 -8.414062 54.65625 -7.25 C 54.332031 -6.09375 53.6875 -5.066406 52.71875 -4.171875 C 51.75 -3.273438 50.316406 -2.515625 48.421875 -1.890625 C 46.535156 -1.273438 44.0625 -0.804688 41 -0.484375 C 37.9375 -0.160156 34.128906 0 29.578125 0 Z M 28.734375 -20.890625 C 30.921875 -20.890625 32.613281 -20.992188 33.8125 -21.203125 C 35.007812 -21.421875 35.84375 -21.75 36.3125 -22.1875 C 36.78125 -22.632812 37.015625 -23.195312 37.015625 -23.875 C 37.015625 -24.570312 36.78125 -25.140625 36.3125 -25.578125 C 35.84375 -26.015625 35.007812 -26.335938 33.8125 -26.546875 C 32.613281 -26.753906 30.921875 -26.859375 28.734375 -26.859375 L 18.953125 -26.859375 L 18.953125 -20.890625 Z M 28.734375 -8.796875 C 30.960938 -8.796875 32.773438 -8.851562 34.171875 -8.96875 C 35.566406 -9.09375 36.585938 -9.359375 37.234375 -9.765625 C 37.878906 -10.179688 38.203125 -10.859375 38.203125 -11.796875 C 38.203125 -12.722656 37.878906 -13.394531 37.234375 -13.8125 C 36.585938 -14.238281 35.566406 -14.503906 34.171875 -14.609375 C 32.773438 -14.722656 30.960938 -14.78125 28.734375 -14.78125 L 18.953125 -14.78125 L 18.953125 -8.796875 Z M 28.734375 -8.796875 "/></g></g></g></svg>